<?xml version="1.0" encoding="UTF-8"?>
<svg version="1.1" xmlns="http://www.w3.org/2000/svg" width="600" height="600">
<path d="M0 0 C0.33 0 0.66 0 1 0 C0.46951062 11.73354623 -1.82141847 23.21030327 -3.875 34.75 C-4.23093807 36.77595927 -4.58640991 38.80200051 -4.94140625 40.828125 C-6.33365774 48.74851138 -7.73260007 56.66597466 -9.25636292 64.5622406 C-11.03562467 73.79131777 -12.27483227 83.05631009 -13.37304688 92.38867188 C-13.52708984 93.56365234 -13.68113281 94.73863281 -13.83984375 95.94921875 C-14.03114868 97.51675903 -14.03114868 97.51675903 -14.22631836 99.1159668 C-15.83183309 105.10080287 -20.49645652 108.40807694 -25.25 112 C-26.50621453 112.96744487 -27.76138171 113.93625087 -29.015625 114.90625 C-29.66853516 115.41027344 -30.32144531 115.91429687 -30.99414062 116.43359375 C-34.37133618 119.07089738 -37.68341412 121.78716155 -41 124.5 C-51.44315349 133.01650234 -62.00150357 141.34836162 -72.8671875 149.3203125 C-73.57101562 149.87460937 -74.27484375 150.42890625 -75 151 C-75 151.33 -75 151.66 -75 152 C-72.43850372 152.50567729 -69.87600535 153.00470132 -67.3125 153.5 C-66.59126953 153.64308594 -65.87003906 153.78617188 -65.12695312 153.93359375 C-61.36158641 154.65571887 -57.85526187 155.1824976 -54 155 C-54 154.34 -54 153.68 -54 153 C-52.50890766 151.67018907 -50.95293286 150.4130127 -49.375 149.1875 C-43.84085649 144.78321414 -38.69281436 140.06973601 -33.59716797 135.16674805 C-29.21013763 131 -29.21013763 131 -27 131 C-26.67 130.01 -26.34 129.02 -26 128 C-24.43359375 126.45703125 -24.43359375 126.45703125 -22.4375 124.8125 C-18.60614476 121.58173558 -15.11928602 118.13120266 -11.6640625 114.50390625 C-10 113 -10 113 -8 113 C-8 112.34 -8 111.68 -8 111 C-6.5390625 109.59765625 -6.5390625 109.59765625 -4.625 108.0625 C-2.16098476 106.08013383 -0.79533563 104.69300345 1 102 C3.72265625 101.3125 3.72265625 101.3125 7.0625 101 C8.14660156 100.87625 9.23070312 100.7525 10.34765625 100.625 C13.95529638 100.99541011 15.18222359 101.52024676 18.16796875 103.33203125 C23.58834412 106.59034356 29.08212624 107.58229602 35.25 108.6875 C37.36014547 109.08315228 39.46955531 109.48275282 41.578125 109.88671875 C42.50012695 110.05389404 43.42212891 110.22106934 44.37207031 110.39331055 C47.06055481 111.01397981 49.4690789 111.91037728 52 113 C51.67 113.99 51.34 114.98 51 116 C50.30052246 115.86650146 49.60104492 115.73300293 48.88037109 115.59545898 C39.57526087 113.92017346 30.32649392 113.34608216 20.89453125 112.87695312 C19.70472656 112.80541016 18.51492188 112.73386719 17.2890625 112.66015625 C16.22381348 112.60480713 15.15856445 112.54945801 14.06103516 112.49243164 C10.59492707 111.93483553 8.09408107 110.61489077 5 109 C0.90730894 109.9094869 -0.90770199 113.23089343 -3.25 116.5 C-6.65564638 121.22315921 -10.20908925 125.78211278 -13.859375 130.31933594 C-17.42855944 134.78895788 -20.90374929 139.32915948 -24.375 143.875 C-25.44041016 145.25945312 -25.44041016 145.25945312 -26.52734375 146.671875 C-27.20667969 147.56132812 -27.88601563 148.45078125 -28.5859375 149.3671875 C-29.49931885 150.55997314 -29.49931885 150.55997314 -30.43115234 151.77685547 C-31.85561195 153.79539409 -32.96978191 155.75986718 -34 158 C-34.66 158 -35.32 158 -36 158 C-36.36351562 159.03060547 -36.36351562 159.03060547 -36.734375 160.08203125 C-38.23029299 163.53095327 -40.17820114 166.56758946 -42.25 169.6875 C-45.01086767 173.85531153 -47.5250181 177.98544568 -49.8125 182.4375 C-53.42856297 188.47740899 -58.83934161 190.96120333 -65 194 C-66.30538872 194.6639878 -67.6100501 195.32940704 -68.9140625 195.99609375 C-71.6249919 197.37369912 -74.34630438 198.72683367 -77.078125 200.0625 C-79.59104828 201.29311865 -82.07801132 202.55827271 -84.546875 203.875 C-85.60390625 204.431875 -86.6609375 204.98875 -87.75 205.5625 C-88.67296875 206.05878906 -89.5959375 206.55507813 -90.546875 207.06640625 C-93 208 -93 208 -95.015625 207.90625 C-97.75452674 206.65541299 -99.72658928 204.90981912 -102 202.9375 C-107.15642668 198.62127951 -112.47221456 194.84910663 -118.12255859 191.21191406 C-120.30287887 189.80448755 -122.47373889 188.38301459 -124.64453125 186.9609375 C-139.35406074 177.33910754 -154.21130901 168.0011689 -169.31201172 159.00634766 C-171.85718257 157.48896347 -174.39723925 155.96308557 -176.9375 154.4375 C-177.73027344 153.96183594 -178.52304688 153.48617187 -179.33984375 152.99609375 C-180.16162109 152.50302734 -180.16162109 152.50302734 -181 152 C-180.67 151.34 -180.34 150.68 -180 150 C-179.18269409 150.15033691 -179.18269409 150.15033691 -178.34887695 150.30371094 C-161.62461821 153.35486332 -144.85091857 155.77207538 -128 158 C-128.68835938 156.49373047 -128.68835938 156.49373047 -129.390625 154.95703125 C-130.01202954 153.57624555 -130.6316915 152.19467486 -131.25 150.8125 C-131.57863037 150.08144043 -131.90726074 149.35038086 -132.24584961 148.59716797 C-134.13219717 144.30248825 -135.51142886 140.21095844 -136.5625 135.625 C-138.85065328 127.68491256 -144.08197291 122.03010237 -149.21484375 115.7421875 C-152.92898479 111.17195347 -156.23765038 106.39880007 -159.5 101.5 C-164.35393554 94.26171408 -169.50163418 87.34215621 -174.89916992 80.50146484 C-178.62953031 75.77289779 -182.26836339 70.99473901 -185.8125 66.125 C-186.26141602 65.50834473 -186.71033203 64.89168945 -187.17285156 64.25634766 C-188.04105302 63.06297111 -188.90906089 61.8694537 -189.77685547 60.67578125 C-195.93045825 52.24497696 -202.29776067 43.97166056 -208.65966797 35.69775391 C-209.19350098 35.00214355 -209.72733398 34.3065332 -210.27734375 33.58984375 C-210.75421631 32.96972412 -211.23108887 32.34960449 -211.72241211 31.71069336 C-212.86704432 30.17802799 -213.93890535 28.59164198 -215 27 C-210.69807575 27 -209.28042346 27.66367933 -205.58984375 29.67578125 C-204.52636719 30.25134766 -203.46289062 30.82691406 -202.3671875 31.41992188 C-201.23539063 32.04447266 -200.10359375 32.66902344 -198.9375 33.3125 C-197.76455417 33.9528977 -196.59137511 34.5928684 -195.41796875 35.23242188 C-182.91582436 42.06873517 -170.59691515 49.20563721 -158.4050293 56.57958984 C-150.91610013 61.00255096 -143.16271277 64.99153952 -135.49829102 69.09960938 C-116.70864608 79.17543697 -116.70864608 79.17543697 -107.91796875 84.3515625 C-105.00421719 86.04783292 -105.00421719 86.04783292 -101.86328125 87.4609375 C-97.11310597 89.70873286 -93.73764923 91.34106749 -91.625 96.3125 C-91.04103016 98.19573287 -90.50454245 100.09395075 -90 102 C-89.43687919 103.86899595 -88.87364897 105.73795946 -88.30883789 107.60644531 C-87.66987713 109.74652449 -87.05184421 111.89179441 -86.4375 114.0390625 C-84.75258428 119.8999547 -82.96888451 125.73034525 -81.1875 131.5625 C-80.87321045 132.59270264 -80.5589209 133.62290527 -80.23510742 134.68432617 C-79.49077054 137.12309854 -78.7457572 139.56166165 -78 142 C-75.64692351 138.14819479 -73.44308634 134.22811358 -71.3125 130.25 C-70.78922119 129.27317261 -70.78922119 129.27317261 -70.25537109 128.27661133 C-67.71734196 123.48261961 -65.38860118 118.61591207 -63.125 113.6875 C-59.9614048 106.81589156 -56.4253227 100.22631397 -52.70263672 93.64331055 C-50.07922878 88.98908681 -47.59738448 84.29884636 -45.25 79.5 C-37.73714463 64.20991882 -29.77286558 49.02184702 -20.640625 34.6328125 C-19.06964895 32.11176999 -17.64504129 29.55921552 -16.25 26.9375 C-13.23929097 21.31024162 -9.969755 15.84654796 -6.6875 10.375 C-5.87684082 9.02136353 -5.87684082 9.02136353 -5.04980469 7.64038086 C-1.12940356 1.12940356 -1.12940356 1.12940356 0 0 Z " fill="#1A5E8F" transform="translate(381,124)"/>
<path d="M0 0 C0.33 0 0.66 0 1 0 C0.46951062 11.73354623 -1.82141847 23.21030327 -3.875 34.75 C-4.23093807 36.77595927 -4.58640991 38.80200051 -4.94140625 40.828125 C-6.33365774 48.74851138 -7.73260007 56.66597466 -9.25636292 64.5622406 C-11.03562467 73.79131777 -12.27483227 83.05631009 -13.37304688 92.38867188 C-13.52708984 93.56365234 -13.68113281 94.73863281 -13.83984375 95.94921875 C-14.03114868 97.51675903 -14.03114868 97.51675903 -14.22631836 99.1159668 C-15.83183309 105.10080287 -20.49645652 108.40807694 -25.25 112 C-26.50621453 112.96744487 -27.76138171 113.93625087 -29.015625 114.90625 C-29.66853516 115.41027344 -30.32144531 115.91429687 -30.99414062 116.43359375 C-34.37133743 119.07089836 -37.68337734 121.78720475 -41 124.5 C-71.08441721 149.02813907 -71.08441721 149.02813907 -77 151 C-76.71125 151.67546875 -76.4225 152.3509375 -76.125 153.046875 C-75.75375 153.93890625 -75.3825 154.8309375 -75 155.75 C-74.62875 156.63171875 -74.2575 157.5134375 -73.875 158.421875 C-73 161 -73 161 -73 165 C-82.57701415 164.68392693 -91.96479107 163.54424213 -101.4375 162.125 C-102.55044434 161.96354492 -103.66338867 161.80208984 -104.81005859 161.63574219 C-110.90644883 160.69191505 -116.31884588 159.41604367 -122 157 C-120.55036525 148.94647361 -116.76895608 142.17512494 -113 135 C-112.34 135 -111.68 135 -111 135 C-110.855625 134.2575 -110.71125 133.515 -110.5625 132.75 C-110.09812508 130.47972261 -109.58136431 128.24240521 -109 126 C-108.34 126 -107.68 126 -107 126 C-106.9175 125.21625 -106.835 124.4325 -106.75 123.625 C-105.75157865 118.79929683 -103.93711412 114.51778775 -102 110 C-101.58105469 108.99195313 -101.16210938 107.98390625 -100.73046875 106.9453125 C-100.30378906 105.95273438 -99.87710937 104.96015625 -99.4375 103.9375 C-99.04433594 103.01839844 -98.65117187 102.09929687 -98.24609375 101.15234375 C-97 99 -97 99 -94 98 C-93.505 98.99 -93.505 98.99 -93 100 C-92.34 100 -91.68 100 -91 100 C-86.23255243 113.88768959 -81.90339669 127.84503953 -78 142 C-75.64692351 138.14819479 -73.44308634 134.22811358 -71.3125 130.25 C-70.96364746 129.59878174 -70.61479492 128.94756348 -70.25537109 128.27661133 C-67.71734196 123.48261961 -65.38860118 118.61591207 -63.125 113.6875 C-59.9614048 106.81589156 -56.4253227 100.22631397 -52.70263672 93.64331055 C-50.07922878 88.98908681 -47.59738448 84.29884636 -45.25 79.5 C-37.73714463 64.20991882 -29.77286558 49.02184702 -20.640625 34.6328125 C-19.06964895 32.11176999 -17.64504129 29.55921552 -16.25 26.9375 C-13.23929097 21.31024162 -9.969755 15.84654796 -6.6875 10.375 C-5.87684082 9.02136353 -5.87684082 9.02136353 -5.04980469 7.64038086 C-1.12940356 1.12940356 -1.12940356 1.12940356 0 0 Z " fill="#096BA2" transform="translate(381,124)"/>
<path d="M0 0 C3.50032472 1.33757656 6.77506527 2.87048536 10.0703125 4.65234375 C11.0401709 5.17626709 12.0100293 5.70019043 13.00927734 6.23999023 C14.03746582 6.80016846 15.0656543 7.36034668 16.125 7.9375 C17.18799316 8.51508057 18.25098633 9.09266113 19.34619141 9.68774414 C31.67671339 16.41759285 43.828396 23.44184546 55.84375 30.71875 C59.51384353 32.89953021 63.25317066 34.95462939 67 37 C67 37.99 67 38.98 67 40 C67.721875 40.27457031 68.44375 40.54914063 69.1875 40.83203125 C71.91474071 41.96459371 74.4208313 43.25244425 77 44.6875 C81.00718871 46.90185861 85.02520178 49.0909897 89.0625 51.25 C97.42435744 55.74399343 105.70972322 60.37568175 114 65 C113.67 65.66 113.34 66.32 113 67 C110.79971443 67.57318836 108.56909866 68.03089099 106.33203125 68.4375 C105.65959885 68.56310303 104.98716644 68.68870605 104.2943573 68.81811523 C102.13516597 69.22032229 99.97408352 69.61087173 97.8125 70 C95.6690957 70.39063055 93.52623818 70.78382363 91.38420105 71.18188477 C89.42748776 71.54479571 87.46926893 71.89956108 85.51098633 72.25390625 C82.22428535 72.95233878 79.16514715 73.88383443 76 75 C72.69032018 75.86478731 69.37993528 76.4773296 66 77 C65.13503906 77.14566406 64.27007812 77.29132813 63.37890625 77.44140625 C60.64425153 77.70363342 58.66977622 77.6602159 56 77 C54.23388672 75.28271484 54.23388672 75.28271484 52.6171875 73.0234375 C51.72012085 71.79548462 51.72012085 71.79548462 50.80493164 70.54272461 C49.91149048 69.28407593 49.91149048 69.28407593 49 68 C47.89374222 66.50776723 46.78570874 65.016849 45.67578125 63.52734375 C44.55367925 61.99813516 43.43261307 60.46816604 42.3125 58.9375 C36.36590616 50.83907857 30.36299615 42.78543165 24.32128906 34.7578125 C22.3962464 32.19678013 20.48034478 29.62892502 18.5625 27.0625 C14.19963714 21.24000287 9.77508536 15.46520669 5.34008789 9.69750977 C4.80633545 9.00197998 4.27258301 8.3064502 3.72265625 7.58984375 C3.24578369 6.96972412 2.76891113 6.34960449 2.27758789 5.71069336 C1.13295568 4.17802799 0.06109465 2.59164198 -1 1 C-0.67 0.67 -0.34 0.34 0 0 Z " fill="#1AB7E9" transform="translate(167,150)"/>
<path d="M0 0 C6.25182924 2.50073169 10.2486969 5.35803577 14 11 C15.18483562 15.89398239 15.05681462 20.66245673 14.87890625 25.66015625 C14.86208679 27.05972672 14.84929139 28.45935077 14.84031677 29.85899353 C14.80620916 33.51498828 14.7180481 37.16768307 14.61798096 40.8223877 C14.52534254 44.56277835 14.4846889 48.30371084 14.43945312 52.04492188 C14.34338647 59.36477395 14.19011914 66.68192192 14 74 C9.36627073 73.15350689 7.19073105 70.3466883 4.1875 66.9375 C3.65995117 66.35057373 3.13240234 65.76364746 2.58886719 65.15893555 C1.53702197 63.98600882 0.48892265 62.80971075 -0.55517578 61.62988281 C-1.80531841 60.21961715 -3.07117815 58.82331349 -4.33984375 57.4296875 C-9 52.26444274 -9 52.26444274 -9 50 C-9.99 49.67 -10.98 49.34 -12 49 C-13.40234375 47.64453125 -13.40234375 47.64453125 -14.9375 45.8125 C-15.53820312 45.10222656 -16.13890625 44.39195312 -16.7578125 43.66015625 C-17.49773437 42.78230469 -18.23765625 41.90445313 -19 41 C-20.01652882 39.83055107 -21.03489056 38.66269387 -22.0546875 37.49609375 C-23.14076651 36.24751891 -24.22670335 34.9988204 -25.3125 33.75 C-25.84029053 33.14776611 -26.36808105 32.54553223 -26.91186523 31.92504883 C-29.36117318 29.08865464 -31.56579277 26.51163468 -33 23 C-33.66 23 -34.32 23 -35 23 C-35 35.87 -35 48.74 -35 62 C-40.79402462 59.10298769 -44.76541482 56.78803353 -48 51 C-49.70468917 43.00724799 -49.21216298 34.62500362 -49.125 26.5 C-49.13666184 24.23695527 -49.15224803 21.97392716 -49.171875 19.7109375 C-49.19271032 15.59928061 -49.20405254 11.48851293 -49.16455078 7.37695312 C-49.15739044 6.55360474 -49.1502301 5.73025635 -49.14285278 4.88195801 C-49 3 -49 3 -48 2 C-45.64686445 1.92728259 -43.29166332 1.91629132 -40.9375 1.9375 C-39.64714844 1.94652344 -38.35679687 1.95554687 -37.02734375 1.96484375 C-36.02832031 1.97644531 -35.02929688 1.98804688 -34 2 C-33.67 2.99 -33.34 3.98 -33 5 C-32.01 5.33 -31.02 5.66 -30 6 C-28.6328125 7.35546875 -28.6328125 7.35546875 -27.125 9.1875 C-23.69557983 13.23713446 -20.12394989 17.12562502 -16.5 21 C-8.96837265 29.08825211 -8.96837265 29.08825211 -5.6875 32.75 C-5.15511719 33.34296875 -4.62273437 33.9359375 -4.07421875 34.546875 C-3 36 -3 36 -3 38 C-2.34 38 -1.68 38 -1 38 C-0.67 25.46 -0.34 12.92 0 0 Z M0 39 C1 41 1 41 1 41 Z " fill="#020303" transform="translate(453,355)"/>
<path d="M0 0 C14.30944198 7.55572305 28.52603428 15.27728149 42.4375 23.546875 C44.79173782 24.8819001 47.15906681 26.01533006 49.625 27.125 C53 29 53 29 54.5625 31.5 C55.01287627 34.07357866 54.90064326 35.56826321 54 38 C53.67 37.01 53.34 36.02 53 35 C49.18486871 37.54342086 48.50119864 40.35321839 47.0625 44.5 C46.54122905 45.94822811 46.01909307 47.39614516 45.49609375 48.84375 C45.24327637 49.55144531 44.99045898 50.25914062 44.72998047 50.98828125 C43.26172937 55.03456523 41.62808426 59.01598204 40 63 C39.34 63 38.68 63 38 63 C37.855625 63.7425 37.71125 64.485 37.5625 65.25 C37.09812508 67.52027739 36.58136431 69.75759479 36 72 C35.34 72 34.68 72 34 72 C33.896875 72.71285156 33.79375 73.42570312 33.6875 74.16015625 C32.68730468 78.29164489 30.52566178 81.54918213 28.375 85.18359375 C26.91963851 88.16460407 26.38637097 90.72067638 26 94 C28.31 94.66 30.62 95.32 33 96 C33 96.33 33 96.66 33 97 C27.39 96.67 21.78 96.34 16 96 C17.485 95.505 17.485 95.505 19 95 C18.54109375 93.99582031 18.0821875 92.99164063 17.609375 91.95703125 C16.98797046 90.57624555 16.3683085 89.19467486 15.75 87.8125 C15.42136963 87.08144043 15.09273926 86.35038086 14.75415039 85.59716797 C12.86780283 81.30248825 11.48857114 77.21095844 10.4375 72.625 C8.1559218 64.53852153 2.67122682 58.61828216 -2.58984375 52.26171875 C-5.78203667 48.38707543 -8.4664297 44.32894469 -11 40 C-10.03320312 39.87882812 -9.06640625 39.75765625 -8.0703125 39.6328125 C4.5860644 38.05784822 4.5860644 38.05784822 16.97265625 35.1015625 C22.53993976 33.48694544 28.25352263 32.4865908 33.9375 31.375 C35.09830078 31.14554688 36.25910156 30.91609375 37.45507812 30.6796875 C40.30287762 30.1171592 43.15118193 29.55734283 46 29 C44.75072947 28.21238344 43.50054828 27.42621122 42.25 26.640625 C41.55390625 26.20266602 40.8578125 25.76470703 40.140625 25.31347656 C37.38741191 23.62411908 34.57385521 22.06472682 31.7421875 20.51171875 C28.18926197 18.55305468 24.65828501 16.5563117 21.125 14.5625 C10.65626822 8.60631683 10.65626822 8.60631683 0 3 C0 2.01 0 1.02 0 0 Z " fill="#1F73AA" transform="translate(234,187)"/>
<path d="M0 0 C0.77727951 -0.00315216 1.55455902 -0.00630432 2.35539246 -0.009552 C3.59933525 -0.00651566 3.59933525 -0.00651566 4.8684082 -0.00341797 C5.72602249 -0.00437469 6.58363678 -0.00533142 7.46723938 -0.00631714 C9.2751981 -0.00699641 11.08315928 -0.00515978 12.89111328 -0.00097656 C15.66940725 0.00439495 18.447541 -0.00094017 21.22583008 -0.00732422 C22.98168981 -0.00666378 24.73754945 -0.00538332 26.4934082 -0.00341797 C27.32877609 -0.0054422 28.16414398 -0.00746643 29.02482605 -0.009552 C34.8667258 0.01443088 34.8667258 0.01443088 35.98168945 1.12939453 C35.98168945 5.08939453 35.98168945 9.04939453 35.98168945 13.12939453 C23.77168945 13.12939453 11.56168945 13.12939453 -1.01831055 13.12939453 C-1.01831055 18.07939453 -1.01831055 23.02939453 -1.01831055 28.12939453 C10.20168945 28.12939453 21.42168945 28.12939453 32.98168945 28.12939453 C32.98168945 32.41939453 32.98168945 36.70939453 32.98168945 41.12939453 C31.98168945 42.12939453 31.98168945 42.12939453 28.83886719 42.24291992 C27.44766248 42.24276086 26.05645185 42.2370696 24.6652832 42.22705078 C23.93422867 42.22563583 23.20317413 42.22422089 22.44996643 42.22276306 C20.10633313 42.21714861 17.76279406 42.20459375 15.41918945 42.19189453 C13.83390437 42.18688139 12.2486178 42.18231816 10.66333008 42.17822266 C6.76941335 42.1671745 2.8755674 42.14990025 -1.01831055 42.12939453 C-0.96070557 42.67764893 -0.90310059 43.22590332 -0.84375 43.79077148 C0.6810483 60.51442235 0.6810483 60.51442235 -3.36206055 65.90673828 C-5.96316094 68.72243495 -8.77013581 71.07989499 -12.01831055 73.12939453 C-13.00831055 73.12939453 -13.99831055 73.12939453 -15.01831055 73.12939453 C-15.02662521 64.62727905 -15.0027045 56.12611677 -14.93803215 47.6242733 C-14.90900332 43.67611357 -14.89093174 39.72854644 -14.89819336 35.78027344 C-14.90479817 31.96726849 -14.88223887 28.15543332 -14.83975601 24.34267044 C-14.82864485 22.8907246 -14.82790687 21.43865984 -14.83788681 19.98670578 C-14.91458898 7.18270859 -14.91458898 7.18270859 -11.21801758 3.25292969 C-7.33886902 0.67847263 -4.58521292 0.00535731 0 0 Z " fill="#030304" transform="translate(148.018310546875,355.87060546875)"/>
<path d="M0 0 C0.66 0 1.32 0 2 0 C2.33 0.66 2.66 1.32 3 2 C3.66 2 4.32 2 5 2 C14.40201335 29.70449646 14.40201335 29.70449646 15.875 39.75 C16.82660328 45.98015479 18.76362125 51.6419324 20.87890625 57.5546875 C21.90904076 60.72046673 22.55194115 63.7075226 23 67 C13.42298585 66.68392693 4.03520893 65.54424213 -5.4375 64.125 C-6.55044434 63.96354492 -7.66338867 63.80208984 -8.81005859 63.63574219 C-14.90644883 62.69191505 -20.31884588 61.41604367 -26 59 C-24.55036525 50.94647361 -20.76895608 44.17512494 -17 37 C-16.34 37 -15.68 37 -15 37 C-14.855625 36.2575 -14.71125 35.515 -14.5625 34.75 C-14.09812508 32.47972261 -13.58136431 30.24240521 -13 28 C-12.34 28 -11.68 28 -11 28 C-10.9175 27.21625 -10.835 26.4325 -10.75 25.625 C-9.19172309 18.09332828 -5.47382098 5.47382098 0 0 Z " fill="#139ED4" transform="translate(285,222)"/>
<path d="M0 0 C7.3447382 5.28516028 10.98358297 12.10354884 12.6328125 20.89453125 C13.57885845 28.32774945 10.73573072 35.38966756 6.9453125 41.70703125 C0.11120773 48.17172495 -6.37706058 51.33988987 -15.7421875 52.20703125 C-24.79882504 51.42628663 -31.99483567 48.49750153 -38.3671875 41.89453125 C-43.94616953 34.90067336 -45.28777325 28.27074064 -44.875 19.4140625 C-43.65329135 10.9466818 -39.08002424 5.87811398 -32.60546875 0.55859375 C-22.71534591 -6.79427245 -10.4184199 -5.93155373 0 0 Z M-28.1171875 13.76953125 C-30.87813472 17.60418017 -32.44983553 19.9936265 -32.2421875 24.76953125 C-30.92330926 29.47981069 -28.99717588 33.36641714 -25.3671875 36.76953125 C-20.99547622 39.22861884 -16.31614768 39.53280836 -11.3671875 38.89453125 C-6.94485915 37.49189377 -4.1985263 35.20703378 -1.8671875 31.20703125 C0.11906076 26.60955144 -0.01235229 22.66744743 -1.3671875 17.89453125 C-3.69322714 12.9633272 -6.4939692 10.73587231 -11.3515625 8.5859375 C-18.23348051 6.22527958 -23.29457021 8.72770409 -28.1171875 13.76953125 Z " fill="#030506" transform="translate(383.3671875,361.10546875)"/>
<path d="M0 0 C1.60606996 0.030129 3.21219417 0.05749966 4.81835938 0.08203125 C8.73442219 0.14781795 12.6478602 0.25116923 16.5625 0.375 C14.73961536 5.2495091 12.8172979 9.21962481 8.5625 12.375 C4.92490177 13.34044605 1.43521007 13.35566468 -2.3125 13.3125 C-3.77429688 13.33666992 -3.77429688 13.33666992 -5.265625 13.36132812 C-7.65769166 13.39650558 -10.04543411 13.40017629 -12.4375 13.375 C-13.0975 15.025 -13.7575 16.675 -14.4375 18.375 C-13.42401375 20.00683383 -13.42401375 20.00683383 -11.4375 21.375 C-8.77678878 21.67676005 -6.28872653 21.84119023 -3.625 21.875 C2.75623942 21.95733857 7.39421641 22.66957265 12.4609375 26.99609375 C16.49131462 31.95409735 17.48685132 36.09138347 17.1484375 42.46484375 C16.21745509 47.08872306 14.13505139 50.32436456 10.5625 53.375 C5.78280978 56.28118074 1.79374954 56.78333525 -3.6796875 56.66796875 C-4.44805939 56.66372391 -5.21643127 56.65947906 -6.00808716 56.65510559 C-8.44325985 56.63841826 -10.8775808 56.60078641 -13.3125 56.5625 C-14.97134215 56.54744023 -16.63019737 56.53375409 -18.2890625 56.52148438 C-22.3388659 56.48854759 -26.38803894 56.43683594 -30.4375 56.375 C-23.52427686 45.91838843 -23.52427686 45.91838843 -20.4375 44.375 C-18.62713178 44.15366002 -16.81037901 43.98338518 -14.9921875 43.83984375 C-13.91582031 43.75283203 -12.83945312 43.66582031 -11.73046875 43.57617188 C-10.60253906 43.48916016 -9.47460938 43.40214844 -8.3125 43.3125 C-6.60900391 43.17618164 -6.60900391 43.17618164 -4.87109375 43.03710938 C-2.06016799 42.81270774 0.75100766 42.59216834 3.5625 42.375 C3.72937448 39.95854218 3.72937448 39.95854218 3.5625 37.375 C0.30863421 34.12113421 -4.4580578 35.01503516 -8.87695312 34.984375 C-14.49910976 34.80698881 -17.80919836 33.62232275 -22.4375 30.375 C-26.06464929 26.50387206 -28.28542952 21.69108917 -28.62890625 16.3828125 C-28.2610094 12.52364957 -26.79657051 9.4163507 -24.4375 6.375 C-24.07261475 5.8588916 -23.70772949 5.3427832 -23.33178711 4.81103516 C-17.38976954 -1.92053682 -8.19025803 -0.26682738 0 0 Z " fill="#030404" transform="translate(286.4375,356.625)"/>
<path d="M0 0 C0.66 0 1.32 0 2 0 C2.12437321 5.53173791 2.21470142 11.06264719 2.2746582 16.59545898 C2.29967344 18.4741841 2.33369706 20.35281316 2.37719727 22.23120117 C2.83078288 42.33304851 2.83078288 42.33304851 -3 49 C-3.95132813 50.14082031 -3.95132813 50.14082031 -4.921875 51.3046875 C-11.1185001 56.62742957 -16.82779037 59.45329037 -25.125 58.875 C-30.80902089 58.07057403 -35.20744165 56.1950389 -40 53 C-40 52.34 -40 51.68 -40 51 C-40.99 50.67 -41.98 50.34 -43 50 C-44.48418641 47.66128202 -45.7965973 45.47501445 -47 43 C-47.34587158 42.30205322 -47.69174316 41.60410645 -48.0480957 40.88500977 C-49.27024297 37.18095379 -49.24907613 33.70848484 -49.1953125 29.85546875 C-49.1924826 29.08568192 -49.18965271 28.31589508 -49.18673706 27.52278137 C-49.17559157 25.07752575 -49.15049781 22.63264388 -49.125 20.1875 C-49.1149629 18.52409385 -49.10583833 16.86068193 -49.09765625 15.19726562 C-49.07567073 11.13136763 -49.04118014 7.06574706 -49 3 C-44.71 3 -40.42 3 -36 3 C-35.19791611 7.01041947 -34.91223142 9.92857492 -35.0078125 13.9296875 C-35.02457031 15.05503906 -35.04132813 16.18039062 -35.05859375 17.33984375 C-35.10272089 19.68896502 -35.15475293 22.03795162 -35.21484375 24.38671875 C-35.3075747 31.76304441 -34.79147068 36.59241472 -30.8125 42.875 C-27.75502053 44.77274588 -24.52190822 45.11339477 -21 45 C-16.81377013 43.49927609 -14.23145219 41.87568011 -12 38 C-10.95386883 34.73969231 -10.90243713 31.76230739 -10.9296875 28.3515625 C-10.919375 27.26359375 -10.9090625 26.175625 -10.8984375 25.0546875 C-10.88286616 22.77608148 -10.89052027 20.49719349 -10.921875 18.21875 C-10.78723479 10.08263432 -10.78723479 10.08263432 -8.45410156 6.87402344 C-4.06596814 3 -4.06596814 3 -1 3 C-0.67 2.01 -0.34 1.02 0 0 Z " fill="#020303" transform="translate(244,354)"/>
<path d="M0 0 C0.33 0 0.66 0 1 0 C0.46951062 11.73354623 -1.82141847 23.21030327 -3.875 34.75 C-4.23093807 36.77595927 -4.58640991 38.80200051 -4.94140625 40.828125 C-6.4516332 49.4211376 -7.98817748 58.00754299 -9.62109375 66.578125 C-10.96791308 73.69702718 -12.11445893 80.83525886 -13.1875 88 C-13.45336914 89.75183594 -13.45336914 89.75183594 -13.72460938 91.5390625 C-14.15222429 94.35900951 -14.57734789 97.1793057 -15 100 C-18 99 -18 99 -18.85961914 97.37353516 C-19.08254639 96.68565918 -19.30547363 95.9977832 -19.53515625 95.2890625 C-19.78716797 94.53882813 -20.03917969 93.78859375 -20.29882812 93.015625 C-20.6768457 91.83226562 -20.6768457 91.83226562 -21.0625 90.625 C-21.57044995 89.07428126 -22.0820363 87.52474784 -22.59765625 85.9765625 C-22.81945557 85.28643066 -23.04125488 84.59629883 -23.26977539 83.88525391 C-24.03013708 81.72000538 -24.03013708 81.72000538 -26 79 C-26.52505752 77.45231736 -26.99995637 75.88716267 -27.4375 74.3125 C-28.37696611 71.04105964 -29.38903334 67.85880957 -30.625 64.6875 C-33.43239219 57.15858459 -33.43239219 57.15858459 -32.14233398 53.7019043 C-31.45119507 52.52494995 -31.45119507 52.52494995 -30.74609375 51.32421875 C-30.22797119 50.42525879 -29.70984863 49.52629883 -29.17602539 48.60009766 C-28.31545532 47.15836182 -28.31545532 47.15836182 -27.4375 45.6875 C-26.85411865 44.68509277 -26.2707373 43.68268555 -25.66967773 42.64990234 C-24.42878769 40.52101017 -23.18161071 38.39577218 -21.92871094 36.27392578 C-20.00881948 33.01497078 -18.11426695 29.74253151 -16.2265625 26.46484375 C-15.0058189 24.35120974 -13.78448226 22.23791812 -12.5625 20.125 C-11.996521 19.14619873 -11.43054199 18.16739746 -10.84741211 17.15893555 C-3.81122406 5.09793623 -3.81122406 5.09793623 0 0 Z " fill="#1BB6E7" transform="translate(381,124)"/>
<path d="M0 0 C0.88631104 0.15033691 0.88631104 0.15033691 1.79052734 0.30371094 C4.65168624 0.78779729 7.51327245 1.26928638 10.375 1.75 C11.43960449 1.92901855 12.50420898 2.10803711 13.60107422 2.29248047 C19.45181538 3.26831421 25.30567855 4.20744818 31.171875 5.0859375 C32.91525146 5.34745605 32.91525146 5.34745605 34.69384766 5.61425781 C36.94282862 5.94902857 39.19248928 6.27927145 41.44287109 6.60449219 C55.67439547 8.72422275 55.67439547 8.72422275 59 13 C60.41422443 15.21356867 61.70973207 17.47075647 62.97265625 19.7734375 C64.87682713 23.32284782 64.87682713 23.32284782 67.44921875 26.3828125 C69.44255868 28.46150955 70.51162351 30.68408385 71.8125 33.25 C74.05899646 37.49151943 76.4521569 40.91318748 79.67578125 44.44140625 C82.43626937 47.69047634 84 50.75199744 84 55 C79.65126617 52.95809823 75.91800059 50.6088075 72.0625 47.75 C54.46375708 34.9243748 35.79250213 23.45050128 17.125 12.25 C16.19868774 11.69421265 16.19868774 11.69421265 15.25366211 11.12719727 C12.46021156 9.45594388 9.65919732 7.80326965 6.83984375 6.17578125 C5.92332031 5.64339844 5.00679687 5.11101562 4.0625 4.5625 C3.26972656 4.11003906 2.47695312 3.65757812 1.66015625 3.19140625 C1.11230469 2.79824219 0.56445312 2.40507812 0 2 C0 1.34 0 0.68 0 0 Z " fill="#1C4772" transform="translate(200,274)"/>
<path d="M0 0 C14.33990882 7.57181026 28.61344371 15.27733417 42.51953125 23.625 C44.95844526 24.97696493 47.39013566 26.02540075 50 27 C49.65978036 30.17538332 48.97533396 31.02276865 46.5625 33.25 C44 35 44 35 42 35 C42 35.66 42 36.32 42 37 C41.34 37 40.68 37 40 37 C39.7525 37.61875 39.505 38.2375 39.25 38.875 C37.79371361 41.35068687 36.62187494 41.95125002 34 43 C34 43.66 34 44.32 34 45 C32.35546875 46.62109375 32.35546875 46.62109375 30.1875 48.4375 C27.17536735 50.97339332 27.17536735 50.97339332 24.36328125 53.72265625 C23 55 23 55 21 55 C21 55.66 21 56.32 21 57 C19.390625 58.69140625 19.390625 58.69140625 17.25 60.5625 C16.20585937 61.49255859 16.20585937 61.49255859 15.140625 62.44140625 C13.02017445 63.98531094 11.56079427 64.57896851 9 65 C8.33613281 64.10796875 7.67226562 63.2159375 6.98828125 62.296875 C6.09668356 61.11433491 5.20473795 59.93205708 4.3125 58.75 C3.87744141 58.16347656 3.44238281 57.57695312 2.99414062 56.97265625 C0.28969599 53.40679592 -2.46461594 50.78116879 -6 48 C-7.58203125 45.859375 -7.58203125 45.859375 -8.8125 43.75 C-9.44091797 42.69039062 -9.44091797 42.69039062 -10.08203125 41.609375 C-10.38496094 41.07828125 -10.68789062 40.5471875 -11 40 C-10.03320312 39.87882812 -9.06640625 39.75765625 -8.0703125 39.6328125 C4.5860644 38.05784822 4.5860644 38.05784822 16.97265625 35.1015625 C22.53993976 33.48694544 28.25352263 32.4865908 33.9375 31.375 C35.09830078 31.14554688 36.25910156 30.91609375 37.45507812 30.6796875 C40.30287762 30.1171592 43.15118193 29.55734283 46 29 C44.75072947 28.21238344 43.50054828 27.42621122 42.25 26.640625 C41.55390625 26.20266602 40.8578125 25.76470703 40.140625 25.31347656 C37.38741191 23.62411908 34.57385521 22.06472682 31.7421875 20.51171875 C28.18926197 18.55305468 24.65828501 16.5563117 21.125 14.5625 C10.65626822 8.60631683 10.65626822 8.60631683 0 3 C0 2.01 0 1.02 0 0 Z " fill="#3782C1" transform="translate(234,187)"/>
<path d="M0 0 C5.02753086 2.93305596 10.54197539 3.69525732 16.203125 4.73828125 C18.3315274 5.14295944 20.45916738 5.55167297 22.5859375 5.96484375 C23.52066895 6.13838379 24.45540039 6.31192383 25.41845703 6.49072266 C28.11523738 7.12196829 30.53738462 8.01979077 33.078125 9.11328125 C32.748125 10.10328125 32.418125 11.09328125 32.078125 12.11328125 C31.37864746 11.97978271 30.67916992 11.84628418 29.95849609 11.70874023 C20.65338587 10.03345471 11.40461892 9.45936341 1.97265625 8.99023438 C0.18794922 8.88291992 0.18794922 8.88291992 -1.6328125 8.7734375 C-2.69806152 8.71808838 -3.76331055 8.66273926 -4.86083984 8.60571289 C-8.32694793 8.04811678 -10.82779393 6.72817202 -13.921875 5.11328125 C-18.01456606 6.02276815 -19.82957699 9.34417468 -22.171875 12.61328125 C-25.57752138 17.33644046 -29.13096425 21.89539403 -32.78125 26.43261719 C-36.35043444 30.90223913 -39.82562429 35.44244073 -43.296875 39.98828125 C-44.00714844 40.91125 -44.71742188 41.83421875 -45.44921875 42.78515625 C-46.12855469 43.67460937 -46.80789063 44.5640625 -47.5078125 45.48046875 C-48.1167334 46.27565918 -48.7256543 47.07084961 -49.35302734 47.89013672 C-50.77748695 49.90867534 -51.89165691 51.87314843 -52.921875 54.11328125 C-53.581875 54.11328125 -54.241875 54.11328125 -54.921875 54.11328125 C-55.251875 55.43328125 -55.581875 56.75328125 -55.921875 58.11328125 C-56.911875 57.78328125 -57.901875 57.45328125 -58.921875 57.11328125 C-58.756875 56.49453125 -58.591875 55.87578125 -58.421875 55.23828125 C-57.84552856 53.15264739 -57.84552856 53.15264739 -57.921875 51.11328125 C-58.581875 50.12328125 -59.241875 49.13328125 -59.921875 48.11328125 C-56.921875 48.11328125 -56.921875 48.11328125 -54.921875 49.11328125 C-55.251875 47.79328125 -55.581875 46.47328125 -55.921875 45.11328125 C-57.241875 44.78328125 -58.561875 44.45328125 -59.921875 44.11328125 C-60.251875 44.77328125 -60.581875 45.43328125 -60.921875 46.11328125 C-61.581875 46.11328125 -62.241875 46.11328125 -62.921875 46.11328125 C-63.581875 46.77328125 -64.241875 47.43328125 -64.921875 48.11328125 C-65.911875 47.78328125 -66.901875 47.45328125 -67.921875 47.11328125 C-66.41135477 43.43657541 -64.2730135 41.39453663 -61.296875 38.80078125 C-59.96269531 37.63289063 -59.96269531 37.63289063 -58.6015625 36.44140625 C-57.71726562 35.673125 -56.83296875 34.90484375 -55.921875 34.11328125 C-55.14070313 33.406875 -54.35953125 32.70046875 -53.5546875 31.97265625 C-52.85085938 31.3384375 -52.14703125 30.70421875 -51.421875 30.05078125 C-50.7928125 29.48230469 -50.16375 28.91382813 -49.515625 28.328125 C-47.921875 27.11328125 -47.921875 27.11328125 -45.921875 27.11328125 C-45.591875 26.12328125 -45.261875 25.13328125 -44.921875 24.11328125 C-43.35546875 22.5703125 -43.35546875 22.5703125 -41.359375 20.92578125 C-37.52801976 17.69501683 -34.04116102 14.24448391 -30.5859375 10.6171875 C-28.921875 9.11328125 -28.921875 9.11328125 -26.921875 9.11328125 C-26.921875 8.45328125 -26.921875 7.79328125 -26.921875 7.11328125 C-25.4609375 5.7109375 -25.4609375 5.7109375 -23.546875 4.17578125 C-21.08285976 2.19341508 -19.71721063 0.8062847 -17.921875 -1.88671875 C-11.81477046 -3.59670802 -5.36821401 -3.46637349 0 0 Z " fill="#1183B8" transform="translate(399.921875,227.88671875)"/>
<path d="M0 0 C4.875 1.75 4.875 1.75 6 4 C5.67 4.66 5.34 5.32 5 6 C3.68 5.67 2.36 5.34 1 5 C1.99 6.65 2.98 8.3 4 10 C3.34 10.66 2.68 11.32 2 12 C2.20625 12.56203125 2.4125 13.1240625 2.625 13.703125 C3.22724649 17.39188475 0.99566235 19.81790241 -1 22.75 C-1.40919678 23.36891113 -1.81839355 23.98782227 -2.23999023 24.62548828 C-5.463213 29.41552935 -8.98517945 33.84317615 -13 38 C-15.13050019 35.99108973 -16.72856313 34.03109455 -18.234375 31.5234375 C-18.84369873 30.52316528 -18.84369873 30.52316528 -19.46533203 29.50268555 C-19.88927246 28.80054932 -20.31321289 28.09841309 -20.75 27.375 C-24.12736442 21.84812138 -27.6074596 16.64009922 -31.8203125 11.69921875 C-33 10 -33 10 -33 7 C-26.28115045 6.87079135 -19.68815484 7.37577221 -13 8 C-13 7.34 -13 6.68 -13 6 C-10.6875 4.3125 -10.6875 4.3125 -8 3 C-7.01 3.33 -6.02 3.66 -5 4 C-4.34 3.34 -3.68 2.68 -3 2 C-2.34 2.33 -1.68 2.66 -1 3 C-0.67 2.01 -0.34 1.02 0 0 Z " fill="#1985BE" transform="translate(340,271)"/>
<path d="M0 0 C5.46554868 2.18621947 9.391258 4.29856193 13 9 C14.05992178 12.67502791 13.96306327 16.12883762 13.81640625 19.9296875 C13.80745834 20.96062531 13.79851044 21.99156311 13.78929138 23.05374146 C13.75130496 26.32932933 13.65709244 29.60060933 13.5625 32.875 C13.53092876 35.09891044 13.50289586 37.3228741 13.47851562 39.546875 C13.42009436 43.59294643 13.35388405 47.63816775 13.24047852 51.68310547 C13.21856949 52.49472137 13.19666046 53.30633728 13.17408752 54.14254761 C13 56 13 56 12 57 C8.04 57 4.08 57 0 57 C0 38.19 0 19.38 0 0 Z " fill="#020202" transform="translate(315,356)"/>
<path d="M0 0 C0.495 1.485 0.495 1.485 1 3 C-5.43631935 8.50121267 -11.86144336 13.99085638 -18.58203125 19.14453125 C-21.61332448 21.47064479 -24.62024261 23.82729885 -27.625 26.1875 C-28.21337646 26.64906494 -28.80175293 27.11062988 -29.40795898 27.58618164 C-32.62811165 30.11725882 -35.83385462 32.66486057 -39.0234375 35.234375 C-39.68778809 35.76909424 -40.35213867 36.30381348 -41.03662109 36.85473633 C-42.30961308 37.88094959 -43.58088281 38.9093044 -44.85009766 39.94018555 C-54.83503432 47.98993985 -54.83503432 47.98993985 -58.26171875 48.01953125 C-60.66730178 46.60861626 -61.00451192 45.32750383 -61.8125 42.6875 C-62.06644531 41.90761719 -62.32039063 41.12773437 -62.58203125 40.32421875 C-63.02792519 37.84471509 -62.79557487 36.36507631 -62 34 C-61.34 35.98 -60.68 37.96 -60 40 C-57.4913351 35.91064029 -55.19522432 31.73061515 -52.9375 27.5 C-52.58623047 26.84902344 -52.23496094 26.19804687 -51.87304688 25.52734375 C-50.03144494 22.08086754 -48.36277199 18.67171727 -47 15 C-46.34 15.33 -45.68 15.66 -45 16 C-45.33 17.98 -45.66 19.96 -46 22 C-45.34 21.67 -44.68 21.34 -44 21 C-43.67 21.66 -43.34 22.32 -43 23 C-42.01 23.33 -41.02 23.66 -40 24 C-40 24.66 -40 25.32 -40 26 C-39.34 25.34 -38.68 24.68 -38 24 C-36.27019931 23.24933177 -34.53875111 22.50177365 -32.79296875 21.7890625 C-30.82713124 20.9751176 -30.82713124 20.9751176 -28.5 19.4375 C-25.44632076 17.68163444 -22.40100723 16.86692341 -19 16 C-19 15.34 -19 14.68 -19 14 C-18.34 13.525625 -17.68 13.05125 -17 12.5625 C-16.34 12.046875 -15.68 11.53125 -15 11 C-15 10.01 -15 9.02 -15 8 C-14.113125 7.566875 -13.22625 7.13375 -12.3125 6.6875 C-9.45344121 5.23099835 -6.74250191 3.65993537 -4 2 C-2.67391178 1.31903578 -1.34313399 0.64669414 0 0 Z " fill="#1A5F8E" transform="translate(363,226)"/>
<path d="M0 0 C3.5685304 3.44831395 6.72145524 6.98921262 9.75 10.9375 C10.52859375 11.93652344 11.3071875 12.93554688 12.109375 13.96484375 C14.07032511 17.11289795 14.67262842 19.33889447 15 23 C12.47604653 24.38528839 9.9491691 25.76469683 7.41796875 27.13671875 C4.99429952 28.45796472 2.5825308 29.79334179 0.17578125 31.14453125 C-1.13264368 31.86749311 -2.44123581 32.59015246 -3.75 33.3125 C-4.36302979 33.66183594 -4.97605957 34.01117188 -5.60766602 34.37109375 C-9.84895552 36.69064705 -13.2662043 37.58124115 -18 38 C-16.65041886 33.63679107 -14.95111757 29.69032789 -12.875 25.625 C-12.25503832 24.40373212 -11.63525424 23.18237408 -11.015625 21.9609375 C-10.69013672 21.3225293 -10.36464844 20.68412109 -10.02929688 20.02636719 C-8.20937817 16.44351016 -6.41921912 12.8457749 -4.625 9.25 C-3.95064659 7.9009788 -3.27617665 6.55201583 -2.6015625 5.203125 C-2.07304687 4.14609375 -1.54453125 3.0890625 -1 2 C-0.67 1.34 -0.34 0.68 0 0 Z " fill="#1CB3E4" transform="translate(309,290)"/>
<path d="M0 0 C3.93846154 3.32307692 3.93846154 3.32307692 4.25 6.75 C4.1675 7.4925 4.085 8.235 4 9 C4.66 8.34 5.32 7.68 6 7 C9 8 9 8 10.5 10.9375 C10.995 11.948125 11.49 12.95875 12 14 C12.99 14.66 13.98 15.32 15 16 C15.99 15.34 16.98 14.68 18 14 C18 14.99 18 15.98 18 17 C18.66 17.33 19.32 17.66 20 18 C18.625 19.5 18.625 19.5 17 21 C16.34 21 15.68 21 15 21 C15 21.66 15 22.32 15 23 C14.030625 23.391875 13.06125 23.78375 12.0625 24.1875 C8.27552261 25.80501463 4.73585049 27.76411984 1.15625 29.79296875 C-1.51732687 31.28959059 -4.24592028 32.65826885 -7 34 C-7 33.01 -7 32.02 -7 31 C-8.65 31.33 -10.3 31.66 -12 32 C-14.76931781 22.80338489 -9.4654227 14.536554 -5.27587891 6.6262207 C-2.27350673 1.13675337 -2.27350673 1.13675337 0 0 Z " fill="#10659A" transform="translate(329,219)"/>
<path d="M0 0 C0.66 0.33 1.32 0.66 2 1 C2 3 2 3 -0.234375 5.2890625 C-1.14703125 6.18367187 -2.0596875 7.07828125 -3 8 C-8.53110621 14.6817378 -13.1315787 21.71674702 -17.46801758 29.19824219 C-20.73247983 34.74818324 -24.44873971 39.88706775 -28.37060547 44.98950195 C-30.8165318 48.20705451 -32.72863204 51.14957132 -34 55 C-34.66 55 -35.32 55 -36 55 C-36.33773437 54.11957031 -36.67546875 53.23914063 -37.0234375 52.33203125 C-37.46945313 51.17058594 -37.91546875 50.00914062 -38.375 48.8125 C-39.03628906 47.08966797 -39.03628906 47.08966797 -39.7109375 45.33203125 C-40.13632813 44.23246094 -40.56171875 43.13289063 -41 42 C-41.41765625 40.7625 -41.41765625 40.7625 -41.84375 39.5 C-43.46040754 36.00452424 -45.73541793 33.18953798 -48.125 30.1875 C-48.82689453 29.2912793 -48.82689453 29.2912793 -49.54296875 28.37695312 C-50.69005565 26.91383208 -51.84431234 25.45633703 -53 24 C-52.01 24 -51.02 24 -50 24 C-48.30369687 25.96876633 -46.80463882 27.88673162 -45.3125 30 C-44.89677734 30.57234375 -44.48105469 31.1446875 -44.05273438 31.734375 C-43.02643139 33.14996532 -42.01206601 34.57419631 -41 36 C-38.07391938 35.29602663 -35.56356714 34.62359252 -33 33 C-31.73195434 30.9664052 -31.73195434 30.9664052 -31 29 C-30.34 29 -29.68 29 -29 29 C-29 28.34 -29 27.68 -29 27 C-27.35546875 25.37890625 -27.35546875 25.37890625 -25.1875 23.5625 C-22.17536735 21.02660668 -22.17536735 21.02660668 -19.36328125 18.27734375 C-18 17 -18 17 -16 17 C-16 16.34 -16 15.68 -16 15 C-14.34997172 13.64613064 -12.6825613 12.31321858 -11 11 C-10.67 10.34 -10.34 9.68 -10 9 C-9.34 9 -8.68 9 -8 9 C-8 8.34 -8 7.68 -8 7 C-6.50390625 5.78125 -6.50390625 5.78125 -4.5625 4.5 C-1.77468153 2.7134637 -1.77468153 2.7134637 0 0 Z " fill="#1B5585" transform="translate(284,215)"/>
<path d="M0 0 C5.02753086 2.93305596 10.54197539 3.69525732 16.203125 4.73828125 C18.3315274 5.14295944 20.45916738 5.55167297 22.5859375 5.96484375 C23.52066895 6.13838379 24.45540039 6.31192383 25.41845703 6.49072266 C28.11523738 7.12196829 30.53738462 8.01979077 33.078125 9.11328125 C32.748125 10.10328125 32.418125 11.09328125 32.078125 12.11328125 C31.37864746 11.97978271 30.67916992 11.84628418 29.95849609 11.70874023 C20.65338587 10.03345471 11.40461892 9.45936341 1.97265625 8.99023438 C0.18794922 8.88291992 0.18794922 8.88291992 -1.6328125 8.7734375 C-2.69806152 8.71808838 -3.76331055 8.66273926 -4.86083984 8.60571289 C-8.3708194 8.04105914 -10.87190328 6.92031345 -13.921875 5.11328125 C-15.296875 2.92578125 -15.296875 2.92578125 -15.921875 1.11328125 C-16.581875 1.11328125 -17.241875 1.11328125 -17.921875 1.11328125 C-17.921875 0.12328125 -17.921875 -0.86671875 -17.921875 -1.88671875 C-5.66391358 -3.65731318 -5.66391358 -3.65731318 0 0 Z " fill="#1B567F" transform="translate(399.921875,227.88671875)"/>
<path d="M0 0 C1.65 0 3.3 0 5 0 C8 5.625 8 5.625 8 9 C10.56995074 7.71502463 10.90434463 6.50087627 12.125 3.9375 C12.47820312 3.20402344 12.83140625 2.47054688 13.1953125 1.71484375 C13.46085937 1.14894531 13.72640625 0.58304687 14 0 C15.32 0 16.64 0 18 0 C18 5.28 18 10.56 18 16 C16.68 16 15.36 16 14 16 C13.67 14.35 13.34 12.7 13 11 C12.34 12.32 11.68 13.64 11 15 C9.125 14.6875 9.125 14.6875 7 14 C6.34 13.01 5.68 12.02 5 11 C4.67 12.65 4.34 14.3 4 16 C2.68 16 1.36 16 0 16 C0 10.72 0 5.44 0 0 Z " fill="#0C1012" transform="translate(313,423)"/>
<path d="M0 0 C1.32 0 2.64 0 4 0 C4.66 1.98 5.32 3.96 6 6 C6.309375 5.38125 6.61875 4.7625 6.9375 4.125 C7.625 2.75 8.3125 1.375 9 0 C10.32 0 11.64 0 13 0 C13.66 2.31 14.32 4.62 15 7 C15.99 4.69 16.98 2.38 18 0 C19.32 0 20.64 0 22 0 C20.90301833 5.69139902 19.45946923 10.74567937 17 16 C15.125 15.875 15.125 15.875 13 15 C11.75 11.9375 11.75 11.9375 11 9 C10.01 11.31 9.02 13.62 8 16 C6.140625 15.90234375 6.140625 15.90234375 4 15 C2.734375 12.12890625 2.734375 12.12890625 1.75 8.5625 C1.41484375 7.38816406 1.0796875 6.21382813 0.734375 5.00390625 C0 2 0 2 0 0 Z " fill="#0B0F11" transform="translate(359,423)"/>
<path d="M0 0 C0.99 0.66 1.98 1.32 3 2 C3 2.33 3 2.66 3 3 C4.65 3.33 6.3 3.66 8 4 C6.68 4.33 5.36 4.66 4 5 C6.73015412 10.02348358 9.81110264 14.64027785 13.125 19.296875 C15.71823734 23.03545883 18.12032248 26.8849131 20.51953125 30.75 C21.94169912 33.07638517 21.94169912 33.07638517 24 35 C24.99 33.68 25.98 32.36 27 31 C27.495 31.99 27.495 31.99 28 33 C24.375 38.875 24.375 38.875 21 40 C20.41412109 38.49759766 20.41412109 38.49759766 19.81640625 36.96484375 C18.0210238 32.78053784 15.60616043 29.23336478 12.9375 25.5625 C12.49083984 24.92634766 12.04417969 24.29019531 11.58398438 23.63476562 C10.44434997 22.048817 9.22794195 20.51860402 8 19 C7.34 19 6.68 19 6 19 C3.03 24.61 0.06 30.22 -3 36 C-3.33 35.34 -3.66 34.68 -4 34 C-3.01712992 31.99152635 -2.01622658 29.99180409 -1 28 C-1 27.01 -1 26.02 -1 25 C-0.34 25 0.32 25 1 25 C1.33 23.02 1.66 21.04 2 19 C-1.96697886 17.19682779 -5.6822542 16.50797009 -10 16 C-10 15.67 -10 15.34 -10 15 C-4.84922738 14.90963557 -0.10972353 15.21341226 5 16 C4.6390625 15.01257813 4.278125 14.02515625 3.90625 13.0078125 C3.43733319 11.71360209 2.96859231 10.41932794 2.5 9.125 C2.26152344 8.47402344 2.02304687 7.82304687 1.77734375 7.15234375 C0 2.2265625 0 2.2265625 0 0 Z " fill="#1A6092" transform="translate(303,273)"/>
<path d="M0 0 C3.50032472 1.33757656 6.77506527 2.87048536 10.0703125 4.65234375 C11.0401709 5.17626709 12.0100293 5.70019043 13.00927734 6.23999023 C14.03746582 6.80016846 15.0656543 7.36034668 16.125 7.9375 C17.18799316 8.51508057 18.25098633 9.09266113 19.34619141 9.68774414 C31.74791737 16.45645512 43.96019377 23.52995104 56.04296875 30.8515625 C58.63734912 32.37401325 61.28222943 33.71263499 64 35 C64 35.66 64 36.32 64 37 C59.65846794 35.67780247 55.88596768 33.98625665 51.9296875 31.76953125 C50.785 31.13080078 49.6403125 30.49207031 48.4609375 29.83398438 C47.26560859 29.16018536 46.07029614 28.48635714 44.875 27.8125 C43.7033736 27.15775806 42.5315002 26.50345792 41.359375 25.84960938 C35.72403785 22.69866024 30.12167543 19.49690825 24.5546875 16.2265625 C20.50979076 13.85646912 16.4623016 11.61850435 12.25 9.5625 C11.24453125 9.06878906 10.2390625 8.57507813 9.203125 8.06640625 C8.47609375 7.71449219 7.7490625 7.36257812 7 7 C7 7.66 7 8.32 7 9 C3.65001479 7.88333826 3.20659778 7.25305075 1.3125 4.4375 C0.87550781 3.79683594 0.43851563 3.15617188 -0.01171875 2.49609375 C-0.50091797 1.75552734 -0.50091797 1.75552734 -1 1 C-0.67 0.67 -0.34 0.34 0 0 Z " fill="#23A1CC" transform="translate(167,150)"/>
<path d="M0 0 C1.65322266 0.01740234 1.65322266 0.01740234 3.33984375 0.03515625 C4.99693359 0.04869141 4.99693359 0.04869141 6.6875 0.0625 C7.54214844 0.07410156 8.39679688 0.08570313 9.27734375 0.09765625 C9.27734375 1.08765625 9.27734375 2.07765625 9.27734375 3.09765625 C6.30734375 3.09765625 3.33734375 3.09765625 0.27734375 3.09765625 C0.27734375 4.08765625 0.27734375 5.07765625 0.27734375 6.09765625 C2.91734375 6.09765625 5.55734375 6.09765625 8.27734375 6.09765625 C8.60734375 7.08765625 8.93734375 8.07765625 9.27734375 9.09765625 C6.20117188 9.390625 6.20117188 9.390625 3.125 9.68359375 C2.51527344 9.82023437 1.90554688 9.956875 1.27734375 10.09765625 C0.94734375 10.75765625 0.61734375 11.41765625 0.27734375 12.09765625 C2.91734375 12.09765625 5.55734375 12.09765625 8.27734375 12.09765625 C8.60734375 13.41765625 8.93734375 14.73765625 9.27734375 16.09765625 C7.29824977 16.12452178 5.31905404 16.14399 3.33984375 16.16015625 C2.23769531 16.17175781 1.13554687 16.18335938 0 16.1953125 C-2.72265625 16.09765625 -2.72265625 16.09765625 -3.72265625 15.09765625 C-3.82174927 12.7660557 -3.85236129 10.43135683 -3.84765625 8.09765625 C-3.85023438 6.81890625 -3.8528125 5.54015625 -3.85546875 4.22265625 C-3.68161808 0.1320523 -3.68161808 0.1320523 0 0 Z " fill="#090B0C" transform="translate(342.72265625,422.90234375)"/>
<path d="M0 0 C0.495 0.99 0.495 0.99 1 2 C1.66 2 2.32 2 3 2 C3.495 3.485 3.495 3.485 4 5 C2.63671875 7.26171875 2.63671875 7.26171875 0.6875 9.6875 C0.05199219 10.49574219 -0.58351563 11.30398437 -1.23828125 12.13671875 C-1.81964844 12.75160156 -2.40101563 13.36648437 -3 14 C-3.66 14 -4.32 14 -5 14 C-3.125 9.25 -3.125 9.25 -2 7 C-2.76183594 7.92232422 -2.76183594 7.92232422 -3.5390625 8.86328125 C-7.45921667 13.4661589 -10.48589653 16.41893029 -16 19 C-17.92170981 20.78415585 -19.71003263 22.64402198 -21.484375 24.57421875 C-23 26 -23 26 -25 26 C-25.2578125 26.59296875 -25.515625 27.1859375 -25.78125 27.796875 C-27.09769895 30.17660965 -28.42580782 31.50978792 -30.5 33.25 C-31.1084375 33.77078125 -31.716875 34.2915625 -32.34375 34.828125 C-34 36 -34 36 -36 36 C-36.226875 36.5775 -36.45375 37.155 -36.6875 37.75 C-38.36684391 40.62887527 -40.22790829 42.17447619 -43 44 C-43.99 43.67 -44.98 43.34 -46 43 C-45.52691406 42.5875 -45.05382812 42.175 -44.56640625 41.75 C-43.90511719 41.1725 -43.24382812 40.595 -42.5625 40 C-41.83933594 39.36964844 -41.11617188 38.73929687 -40.37109375 38.08984375 C-38.74688298 36.6582906 -37.13543482 35.21216327 -35.53515625 33.75390625 C-34.73980469 33.03074219 -33.94445312 32.30757813 -33.125 31.5625 C-32.38507813 30.88316406 -31.64515625 30.20382812 -30.8828125 29.50390625 C-29 28 -29 28 -27 28 C-26.67 27.01 -26.34 26.02 -26 25 C-24.43359375 23.45703125 -24.43359375 23.45703125 -22.4375 21.8125 C-18.60614476 18.58173558 -15.11928602 15.13120266 -11.6640625 11.50390625 C-10 10 -10 10 -8 10 C-8 9.34 -8 8.68 -8 8 C-6.50390625 6.5625 -6.50390625 6.5625 -4.5625 5 C-1.84811762 2.85474956 -1.84811762 2.85474956 0 0 Z " fill="#1A75A3" transform="translate(381,227)"/>
<path d="M0 0 C1.588125 -0.061875 3.17625 -0.12375 4.8125 -0.1875 C6.15248047 -0.23970703 6.15248047 -0.23970703 7.51953125 -0.29296875 C10 0 10 0 11.84765625 1.234375 C13.37501156 3.57459398 13.11088065 4.71931865 12.625 7.4375 C12.07024705 10.65180385 12.01640557 12.8710293 13 16 C11.0625 15.6875 11.0625 15.6875 9 15 C8.67 14.01 8.34 13.02 8 12 C6.68 12 5.36 12 4 12 C3.67 13.32 3.34 14.64 3 16 C2.01 16 1.02 16 0 16 C0 10.72 0 5.44 0 0 Z M4 3 C4 4.65 4 6.3 4 8 C5.65 8 7.3 8 9 8 C9 6.35 9 4.7 9 3 C7.35 3 5.7 3 4 3 Z " fill="#0D1214" transform="translate(411,423)"/>
<path d="M0 0 C10.49675535 -0.37047372 10.49675535 -0.37047372 12.8359375 1.3515625 C14.46984593 3.66535229 14.35458018 5.23427458 14 8 C13.34 8.66 12.68 9.32 12 10 C12.32198966 13.09926819 12.32198966 13.09926819 13 16 C10.13275314 15.42655063 9.1385485 15.1385485 7 13 C4.93125966 12.3574765 4.93125966 12.3574765 3 12 C3 13.32 3 14.64 3 16 C1.68 15.67 0.36 15.34 -1 15 C-0.67 10.05 -0.34 5.1 0 0 Z M3 3 C3 4.65 3 6.3 3 8 C4.98 8 6.96 8 9 8 C9.59070014 6.05396726 9.59070014 6.05396726 10 4 C8.87465895 2.64381501 8.87465895 2.64381501 5.9375 2.9375 C4.968125 2.958125 3.99875 2.97875 3 3 Z " fill="#0A0D0E" transform="translate(268,423)"/>
<path d="M0 0 C3.0625 2.0625 3.0625 2.0625 5 5 C5 8.54595558 4.72088444 10.86176141 2.8125 13.875 C0.19039376 15.50251421 -1.92955073 15.81577304 -5 16 C-8.84624466 14.95102418 -9.73691641 14.39462539 -12 11 C-12.41857482 7.16306413 -12.54644269 4.88796936 -10.5 1.5625 C-7.02348669 -0.61032082 -3.92483969 -0.88425242 0 0 Z M-7.875 4.25 C-9.21804394 5.9450357 -9.21804394 5.9450357 -8.8125 8.0625 C-8.06529664 10.18712526 -8.06529664 10.18712526 -6 12 C-3.5 12.41666667 -3.5 12.41666667 -1 12 C1.31543207 9.23011924 1.31543207 9.23011924 0.6875 6.375 C0.2258486 4.06498035 0.2258486 4.06498035 -1 3 C-3.87205324 2.69767861 -5.43911421 2.62607614 -7.875 4.25 Z " fill="#0B0E0F" transform="translate(399,423)"/>
<path d="M0 0 C0.66 0.33 1.32 0.66 2 1 C2 3 2 3 -0.234375 5.2890625 C-1.14703125 6.18367187 -2.0596875 7.07828125 -3 8 C-8.73824708 14.93197002 -13.55500568 22.24025936 -17.90527344 30.09912109 C-20.05016735 33.86413683 -20.9683684 34.9841842 -25 37 C-23.68 34.36 -22.36 31.72 -21 29 C-20.34 29 -19.68 29 -19 29 C-18.34 26.36 -17.68 23.72 -17 21 C-17.5775 21.28875 -18.155 21.5775 -18.75 21.875 C-21.875 23.4375 -21.875 23.4375 -25 25 C-24.07038578 23.84775972 -23.1309875 22.70340824 -22.1875 21.5625 C-21.66542969 20.92441406 -21.14335937 20.28632813 -20.60546875 19.62890625 C-19 18 -19 18 -16 17 C-16 16.34 -16 15.68 -16 15 C-14.34997172 13.64613064 -12.6825613 12.31321858 -11 11 C-10.67 10.34 -10.34 9.68 -10 9 C-9.34 9 -8.68 9 -8 9 C-8 8.34 -8 7.68 -8 7 C-6.50390625 5.78125 -6.50390625 5.78125 -4.5625 4.5 C-1.77468153 2.7134637 -1.77468153 2.7134637 0 0 Z " fill="#1A5C8E" transform="translate(284,215)"/>
<path d="M0 0 C10.50154919 -0.37064291 10.50154919 -0.37064291 12.828125 1.359375 C14 3 14 3 14.4375 5.4375 C13.85028068 8.87692746 12.79245204 9.94240376 10 12 C6.75 12.75 6.75 12.75 4 13 C3.67 13.99 3.34 14.98 3 16 C2.01 16 1.02 16 0 16 C0 10.72 0 5.44 0 0 Z M4 3 C4 4.98 4 6.96 4 9 C5.98 8.34 7.96 7.68 10 7 C9.67 5.68 9.34 4.36 9 3 C7.35 3 5.7 3 4 3 Z " fill="#11161A" transform="translate(165,423)"/>
<path d="M0 0 C10.48893081 -0.37019756 10.48893081 -0.37019756 12.828125 1.32421875 C14.66769486 3.95480366 14.45354771 5.88995859 14 9 C12.375 10.875 12.375 10.875 10 12 C6.75 12.1875 6.75 12.1875 4 12 C3.67 13.32 3.34 14.64 3 16 C2.01 16 1.02 16 0 16 C0 10.72 0 5.44 0 0 Z M4 3 C4 4.98 4 6.96 4 9 C5.98 8.67 7.96 8.34 10 8 C9.67 6.35 9.34 4.7 9 3 C7.35 3 5.7 3 4 3 Z " fill="#0D0F11" transform="translate(210,423)"/>
<path d="M0 0 C1.32 0 2.64 0 4 0 C4.33 1.65 4.66 3.3 5 5 C5.5775 4.175 6.155 3.35 6.75 2.5 C7.4925 1.675 8.235 0.85 9 0 C10.32 0 11.64 0 13 0 C12.690625 0.7425 12.38125 1.485 12.0625 2.25 C11.711875 3.1575 11.36125 4.065 11 5 C10.566875 5.99 10.566875 5.99 10.125 7 C9.92573809 10.18819058 11.98779959 11.68292074 14 14 C14 14.66 14 15.32 14 16 C9.68607774 15.5206753 7.83430453 14.2542015 5 11 C4.34 12.65 3.68 14.3 3 16 C2.01 16 1.02 16 0 16 C0 10.72 0 5.44 0 0 Z " fill="#0E1418" transform="translate(432,423)"/>
<path d="M0 0 C2.29296875 0.09765625 2.29296875 0.09765625 5 1 C6.80078125 3.87109375 6.80078125 3.87109375 8.3125 7.4375 C8.82425781 8.61183594 9.33601563 9.78617187 9.86328125 10.99609375 C11 14 11 14 11 16 C9.0625 15.6875 9.0625 15.6875 7 15 C6.67 14.01 6.34 13.02 6 12 C2.56769552 12.26393501 2.56769552 12.26393501 -1 13 C-1.99 14.485 -1.99 14.485 -3 16 C-3.99 16 -4.98 16 -6 16 C-5.37183502 12.05050296 -4.1354471 8.80107972 -2.4375 5.1875 C-1.98246094 4.21167969 -1.52742188 3.23585938 -1.05859375 2.23046875 C-0.70925781 1.49441406 -0.35992187 0.75835937 0 0 Z M2 5 C1.67 6.32 1.34 7.64 1 9 C1.99 9 2.98 9 4 9 C3.34 7.68 2.68 6.36 2 5 Z " fill="#090B0C" transform="translate(295,423)"/>
<path d="M0 0 C0.99 0 1.98 0 3 0 C3 1.98 3 3.96 3 6 C5.64 6 8.28 6 11 6 C10.67 4.35 10.34 2.7 10 1 C11.32 0.67 12.64 0.34 14 0 C14 5.28 14 10.56 14 16 C13.01 16 12.02 16 11 16 C11 14.02 11 12.04 11 10 C8.36 10 5.72 10 3 10 C3 11.98 3 13.96 3 16 C2.01 16 1.02 16 0 16 C-0.71033431 10.47032059 -1.30267176 5.50016964 0 0 Z " fill="#0A0E10" transform="translate(187,423)"/>
<path d="M0 0 C0.33 0.99 0.66 1.98 1 3 C-6.21136692 9.16365674 -13.42830344 15.27847159 -21 21 C-21.68449219 21.55300781 -22.36898438 22.10601562 -23.07421875 22.67578125 C-25.51167285 24.35183995 -27.10424638 24.2413128 -30 24 C-24.9059081 17.29540481 -24.9059081 17.29540481 -21.125 16.0625 C-20.42375 16.041875 -19.7225 16.02125 -19 16 C-19 15.34 -19 14.68 -19 14 C-18.34 13.525625 -17.68 13.05125 -17 12.5625 C-16.34 12.046875 -15.68 11.53125 -15 11 C-15 10.01 -15 9.02 -15 8 C-14.113125 7.566875 -13.22625 7.13375 -12.3125 6.6875 C-9.45344121 5.23099835 -6.74250191 3.65993537 -4 2 C-2.67391178 1.31903578 -1.34313399 0.64669414 0 0 Z " fill="#1B4E75" transform="translate(363,226)"/>
<path d="M0 0 C3.96 0 7.92 0 12 0 C12 0.99 12 1.98 12 3 C9.36 3 6.72 3 4 3 C4 4.32 4 5.64 4 7 C6.64 7 9.28 7 12 7 C12 7.99 12 8.98 12 10 C9.36 10 6.72 10 4 10 C4 11.65 4 13.3 4 15 C2.68 15.33 1.36 15.66 0 16 C0 10.72 0 5.44 0 0 Z " fill="#0B0F11" transform="translate(248,423)"/>
<path d="M0 0 C4.29 0 8.58 0 13 0 C13.79601897 3.98009485 14.10756738 6.98357861 14.0625 10.96484375 C14.05476562 12.09470703 14.04703125 13.22457031 14.0390625 14.38867188 C14.01306382 16.75065152 13.9870223 19.11263068 13.9609375 21.47460938 C13.95320312 22.60576172 13.94546875 23.73691406 13.9375 24.90234375 C13.92589844 25.92835693 13.91429687 26.95437012 13.90234375 28.01147461 C14.00286776 31.08776054 14.42770294 33.97882353 15 37 C13.51831055 35.95581055 13.51831055 35.95581055 12 34 C11.73846714 31.48272281 11.6502078 29.21896034 11.70703125 26.70703125 C11.71127609 26.00100266 11.71552094 25.29497406 11.71989441 24.56755066 C11.73666966 22.31547697 11.77431757 20.06430258 11.8125 17.8125 C11.82754843 16.28451815 11.84123656 14.75652224 11.85351562 13.22851562 C11.88656911 9.48533128 11.93834168 5.74281804 12 2 C8.7 2 5.4 2 2 2 C2 13.88 2 25.76 2 38 C-0.49336211 34.25995683 -0.25481228 31.37438391 -0.1953125 27.05078125 C-0.1924826 26.27816452 -0.18965271 25.50554779 -0.18673706 24.70951843 C-0.17554878 22.24368757 -0.15044703 19.77822094 -0.125 17.3125 C-0.11496843 15.63997921 -0.10584289 13.96745272 -0.09765625 12.29492188 C-0.07561392 8.19647441 -0.04109363 4.09829894 0 0 Z " fill="#0D1113" transform="translate(195,357)"/>
<path d="M0 0 C14.40502488 7.60619308 28.73031362 15.36340828 42.71484375 23.72265625 C45.04612132 25.11918039 45.04612132 25.11918039 48 26 C48 27.32 48 28.64 48 30 C46.04723059 29.02361529 44.27713638 27.92439413 42.4375 26.75 C38.93125438 24.55000275 35.37078593 22.50179782 31.7421875 20.51171875 C28.18926197 18.55305468 24.65828501 16.5563117 21.125 14.5625 C10.65626822 8.60631683 10.65626822 8.60631683 0 3 C0 2.01 0 1.02 0 0 Z " fill="#23A0CC" transform="translate(234,187)"/>
<path d="M0 0 C5.02220916 1.89449883 6.78488965 3.7744264 10 8 C5.25 6.125 5.25 6.125 3 5 C2.67 17.87 2.34 30.74 2 44 C1.67 43.34 1.34 42.68 1 42 C0.01 42 -0.98 42 -2 42 C-1.75885216 41.13196747 -1.75885216 41.13196747 -1.51283264 40.24639893 C-0.68969835 36.64076261 -0.75952762 32.97967909 -0.68359375 29.296875 C-0.66281265 28.45908508 -0.64203156 27.62129517 -0.62062073 26.75811768 C-0.5553745 24.08882644 -0.49635642 21.41943902 -0.4375 18.75 C-0.39429106 16.93749016 -0.35067601 15.12498995 -0.30664062 13.3125 C-0.19971871 8.87509791 -0.09838134 4.43759932 0 0 Z M0 39 C1 41 1 41 1 41 Z " fill="#0E1E25" transform="translate(453,355)"/>
<path d="M0 0 C0.61743164 1.78100586 0.61743164 1.78100586 1 4 C-0.42701036 6.66118147 -1.88525282 9.06842496 -3.5625 11.5625 C-4.49970331 13.0063173 -5.43460058 14.4516341 -6.3671875 15.8984375 C-7.05119629 16.95369629 -7.05119629 16.95369629 -7.74902344 18.03027344 C-11.10645706 23.31672435 -13.93902006 28.9153493 -16.77734375 34.4921875 C-17.08454346 35.08555908 -17.39174316 35.67893066 -17.70825195 36.2902832 C-18.57782136 37.97129634 -19.43384178 39.65929798 -20.2890625 41.34765625 C-22.03287271 44.0509602 -23.01527628 44.95078489 -26 46 C-22.39731428 38.42617206 -18.40326022 31.26626818 -13.9453125 24.1640625 C-11.63203228 20.40149828 -9.53687446 16.54896877 -7.453125 12.65625 C-5.10174892 8.35803567 -2.55618534 4.17872851 0 0 Z " fill="#23A4D0" transform="translate(374,135)"/>
<path d="M0 0 C0.66 0.33 1.32 0.66 2 1 C1.02659668 1.87470947 0.05319336 2.74941895 -0.94970703 3.65063477 C-5.48524664 8.98064786 -4.85323439 14.89324941 -4.8046875 21.58984375 C-4.81839386 22.88950577 -4.83210022 24.18916779 -4.84622192 25.5282135 C-4.88211056 28.96266205 -4.88265302 32.39621777 -4.87554932 35.83081055 C-4.87463332 39.34374752 -4.90753838 42.85635533 -4.9375 46.36914062 C-4.99122055 53.24614438 -5.00756131 60.12279776 -5 67 C-2.03 66.505 -2.03 66.505 1 66 C-2.61328125 70.6875 -2.61328125 70.6875 -4 72 C-4.99 72 -5.98 72 -7 72 C-7.00831467 63.49788452 -6.98439395 54.99672224 -6.9197216 46.49487877 C-6.89069277 42.54671904 -6.8726212 38.5991519 -6.87988281 34.65087891 C-6.88648762 30.83787396 -6.86392832 27.02603878 -6.82144547 23.21327591 C-6.8103343 21.76133007 -6.80959633 20.3092653 -6.81957626 18.85731125 C-6.88793649 7.44584728 -6.88793649 7.44584728 -4.61090088 3.73809814 C-2.94970703 2.06103516 -2.94970703 2.06103516 0 0 Z " fill="#0B0C0D" transform="translate(140,357)"/>
<path d="M0 0 C10.23 1.65 20.46 3.3 31 5 C27.16457543 7.55694972 25.34097467 7.04045639 20.8125 6.625 C19.54019531 6.51414062 18.26789063 6.40328125 16.95703125 6.2890625 C15.98121094 6.19367188 15.00539062 6.09828125 14 6 C14.99 7.485 14.99 7.485 16 9 C9.86277186 8.67698799 4.83769272 5.6043679 0 2 C0 1.34 0 0.68 0 0 Z " fill="#1B4667" transform="translate(200,274)"/>
<path d="M0 0 C6.20970773 -0.33266291 10.28264895 0.54970669 16 3 C13.03547915 6.05663873 10.76557423 7.69102451 6.5 8.4375 C4 8 4 8 1.6875 5.6875 C0 3 0 3 0 0 Z " fill="#6F9CBD" transform="translate(307,278)"/>
<path d="M0 0 C0.70125 0.639375 1.4025 1.27875 2.125 1.9375 C1.465 1.9375 0.805 1.9375 0.125 1.9375 C0.125 2.5975 0.125 3.2575 0.125 3.9375 C-7.39369512 4.53422183 -11.61531045 3.08102972 -17.875 -1.0625 C-17.875 -1.3925 -17.875 -1.7225 -17.875 -2.0625 C-5.38901345 -3.86603139 -5.38901345 -3.86603139 0 0 Z " fill="#0F6B9E" transform="translate(399.875,228.0625)"/>
<path d="M0 0 C0 3 0 3 -1.23754883 4.3503418 C-1.80497803 4.79547119 -2.37240723 5.24060059 -2.95703125 5.69921875 C-3.88418945 6.42915039 -3.88418945 6.42915039 -4.83007812 7.17382812 C-5.48427734 7.67333984 -6.13847656 8.17285156 -6.8125 8.6875 C-7.45509766 9.19861328 -8.09769531 9.70972656 -8.75976562 10.23632812 C-13.60882218 14 -13.60882218 14 -17 14 C-16.4994925 10.29624453 -15.93330887 8.36921101 -13 6 C-12.01 5.34 -11.02 4.68 -10 4 C-9.34 4.33 -8.68 4.66 -8 5 C-8 4.34 -8 3.68 -8 3 C-2.25 0 -2.25 0 0 0 Z " fill="#1B527C" transform="translate(332,252)"/>
<path d="M0 0 C5 2 5 2 6 4 C4.35 3.67 2.7 3.34 1 3 C1 20.49 1 37.98 1 56 C4.63 56 8.26 56 12 56 C12 56.33 12 56.66 12 57 C8.04 57 4.08 57 0 57 C0 38.19 0 19.38 0 0 Z " fill="#0C0E10" transform="translate(315,356)"/>
<path d="M0 0 C0.33 0 0.66 0 1 0 C0.42358005 10.13704052 -1.23643851 20.01757646 -3 30 C-3.66 30 -4.32 30 -5 30 C-4.03644647 15.21867882 -4.03644647 15.21867882 -3 9 C-3.99 9.66 -4.98 10.32 -6 11 C-4.55007731 6.89188572 -2.54592427 3.53144334 0 0 Z " fill="#23A0CD" transform="translate(381,124)"/>
<path d="M0 0 C0.54140625 0.34804688 1.0828125 0.69609375 1.640625 1.0546875 C4.71953042 2.28828868 6.53333326 1.81428573 9.75 1.125 C10.73484375 0.92132813 11.7196875 0.71765625 12.734375 0.5078125 C13.48203125 0.34023438 14.2296875 0.17265625 15 0 C13.3625432 3.2749136 9.88762963 4.15216204 6.6875 5.625 C6.01009766 5.94984375 5.33269531 6.2746875 4.63476562 6.609375 C1.12528264 8.24233092 -1.06724804 9 -5 9 C-3.90931332 5.22454612 -3.0916909 2.52956528 0 0 Z " fill="#229FCB" transform="translate(296,319)"/>
<path d="M0 0 C0.33 0 0.66 0 1 0 C1.18175781 0.84884766 1.18175781 0.84884766 1.3671875 1.71484375 C1.53476562 2.44832031 1.70234375 3.18179687 1.875 3.9375 C2.03742188 4.66839844 2.19984375 5.39929688 2.3671875 6.15234375 C2.82961523 8.20700294 2.82961523 8.20700294 5 9 C4.67 9.66 4.34 10.32 4 11 C6.64 11 9.28 11 12 11 C12.33 12.32 12.66 13.64 13 15 C11.02090602 15.02686553 9.04171029 15.04633375 7.0625 15.0625 C5.96035156 15.07410156 4.85820312 15.08570313 3.72265625 15.09765625 C1 15 1 15 0 14 C-0.07271741 11.64686445 -0.08370868 9.29166332 -0.0625 6.9375 C-0.05347656 5.64714844 -0.04445313 4.35679687 -0.03515625 3.02734375 C-0.02355469 2.02832031 -0.01195312 1.02929688 0 0 Z " fill="#10252F" transform="translate(339,424)"/>
<path d="M0 0 C1 1 1 1 1.0625 3.5625 C1.041875 4.366875 1.02125 5.17125 1 6 C0.01 6 -0.98 6 -2 6 C-2.33 5.01 -2.66 4.02 -3 3 C-4.65 2.67 -6.3 2.34 -8 2 C-8 3.98 -8 5.96 -8 8 C-8.66 8 -9.32 8 -10 8 C-10 9.98 -10 11.96 -10 14 C-10.33 14 -10.66 14 -11 14 C-11 9.38 -11 4.76 -11 0 C-4.05263158 -1.15789474 -4.05263158 -1.15789474 0 0 Z " fill="#080909" transform="translate(177,424)"/>
<path d="M0 0 C5 3 5 3 7 6 C6.01 6 5.02 6 4 6 C3.67 5.01 3.34 4.02 3 3 C2.34 3 1.68 3 1 3 C1 15.87 1 28.74 1 42 C-0.32 41.34 -1.64 40.68 -3 40 C-2.01 39.505 -2.01 39.505 -1 39 C-0.67 26.13 -0.34 13.26 0 0 Z " fill="#0C0D0E" transform="translate(417,375)"/>
<path d="M0 0 C0.66 0.66 1.32 1.32 2 2 C1.828125 5.16015625 1.828125 5.16015625 1.25 9.0625 C1.15146729 9.74135254 1.05293457 10.42020508 0.95141602 11.11962891 C0.30393814 15.44129909 -0.53177942 19.68107635 -1.55859375 23.92578125 C-2.33734797 27.5852369 -2.64556408 31.27842288 -3 35 C-3.33 35 -3.66 35 -4 35 C-4.32409611 22.82839036 -2.75551101 11.80933291 0 0 Z " fill="#2299C4" transform="translate(372,172)"/>
<path d="M0 0 C0.66 0.99 1.32 1.98 2 3 C1.44570313 4.03640625 0.89140625 5.0728125 0.3203125 6.140625 C-0.41148609 7.51040184 -1.14325538 8.88019433 -1.875 10.25 C-2.23980469 10.93191406 -2.60460937 11.61382812 -2.98046875 12.31640625 C-4.69393573 15.5252626 -6.39993987 18.73250878 -8 22 C-8.33 21.34 -8.66 20.68 -9 20 C-8.01712992 17.99152635 -7.01622658 15.99180409 -6 14 C-6 13.01 -6 12.02 -6 11 C-5.34 11 -4.68 11 -4 11 C-3.67 9.02 -3.34 7.04 -3 5 C-6.96697886 3.19682779 -10.6822542 2.50797009 -15 2 C-15 1.67 -15 1.34 -15 1 C-9.84828377 0.90961901 -5.08086796 1.15318867 0 2 C0 1.34 0 0.68 0 0 Z " fill="#106BA1" transform="translate(308,287)"/>
<path d="M0 0 C1.5078125 1.6796875 1.5078125 1.6796875 3.125 3.875 C3.66382813 4.59429687 4.20265625 5.31359375 4.7578125 6.0546875 C6 8 6 8 6 10 C1.68607774 9.5206753 -0.16569547 8.2542015 -3 5 C-5.33075929 5.95865509 -5.33075929 5.95865509 -7 9 C-7 6.36 -7 3.72 -7 1 C-6.01 1.495 -6.01 1.495 -5 2 C-2 0 -2 0 0 0 Z " fill="#0B0E10" transform="translate(440,429)"/>
<path d="M0 0 C1.32 0 2.64 0 4 0 C4 5.28 4 10.56 4 16 C3.01 16 2.02 16 1 16 C0.67 13.03 0.34 10.06 0 7 C-0.33 7 -0.66 7 -1 7 C-0.67 4.69 -0.34 2.38 0 0 Z " fill="#080808" transform="translate(327,423)"/>
<path d="M0 0 C11.22 0 22.44 0 34 0 C32 5 32 5 29 7 C29 6.01 29 5.02 29 4 C29.66 4 30.32 4 31 4 C31 3.01 31 2.02 31 1 C15.16 1.495 15.16 1.495 -1 2 C-0.67 1.34 -0.34 0.68 0 0 Z " fill="#0C0F10" transform="translate(269,357)"/>
<path d="M0 0 C3.48330216 0.64505596 6.09432866 1.98217268 9 4 C9 4.66 9 5.32 9 6 C13.29 6.33 17.58 6.66 22 7 C22 7.33 22 7.66 22 8 C8.92218637 9.75640539 8.92218637 9.75640539 4 6 C2.625 3.8125 2.625 3.8125 2 2 C1.34 2 0.68 2 0 2 C0 1.34 0 0.68 0 0 Z " fill="#1C4D76" transform="translate(382,227)"/>
<path d="M0 0 C0.66 0 1.32 0 2 0 C2.04934926 5.65998046 2.08569529 11.31983636 2.10986328 16.97998047 C2.11993582 18.90643494 2.13359443 20.83287408 2.15087891 22.75927734 C2.17507241 25.52445252 2.18647036 28.289426 2.1953125 31.0546875 C2.20563507 31.9193161 2.21595764 32.7839447 2.22659302 33.67477417 C2.22699106 35.78453521 2.12265243 37.89380718 2 40 C1.34 40.66 0.68 41.32 0 42 C0 38.27498482 0.11325444 34.55519407 0.21875 30.83203125 C0.24094604 30.03721848 0.26314209 29.2424057 0.28601074 28.42350769 C0.35694957 25.886494 0.42846768 23.34949702 0.5 20.8125 C0.54821525 19.09179794 0.59639279 17.37109483 0.64453125 15.65039062 C0.76258334 11.43358136 0.88115494 7.21678699 1 3 C0.34 3 -0.32 3 -1 3 C-0.67 2.01 -0.34 1.02 0 0 Z " fill="#0C0F11" transform="translate(244,354)"/>
<path d="M0 0 C0.33 0.99 0.66 1.98 1 3 C-0.38809937 5.15303072 -1.77719972 7.07713805 -3.375 9.0625 C-6.46304896 12.84980835 -6.46304896 12.84980835 -9 17 C-9.66 17 -10.32 17 -11 17 C-11.33 18.32 -11.66 19.64 -12 21 C-12.99 20.67 -13.98 20.34 -15 20 C-14.6875 18.0625 -14.6875 18.0625 -14 16 C-13.01 15.67 -12.02 15.34 -11 15 C-9.58480048 13.49564619 -9.58480048 13.49564619 -8.30078125 11.62109375 C-7.81416016 10.94755859 -7.32753906 10.27402344 -6.82617188 9.58007812 C-6.32666016 8.87302734 -5.82714844 8.16597656 -5.3125 7.4375 C-4.80138672 6.72658203 -4.29027344 6.01566406 -3.76367188 5.28320312 C-2.50244054 3.52690902 -1.25034113 1.76406364 0 0 Z " fill="#1B77A6" transform="translate(356,265)"/>
<path d="M0 0 C2.3764709 2.3764709 2.77550379 4.0211424 3.7265625 7.2265625 C4.0359375 8.2578125 4.3453125 9.2890625 4.6640625 10.3515625 C4.98117187 11.43179688 5.29828125 12.51203125 5.625 13.625 C5.94984375 14.71296875 6.2746875 15.8009375 6.609375 16.921875 C7.41197298 19.6129388 8.20858066 22.30563153 9 25 C8.34 25.33 7.68 25.66 7 26 C3.41765478 17.3571574 0.80582867 9.35185382 0 0 Z " fill="#1D7FAE" transform="translate(291,231)"/>
<path d="M0 0 C1.32 0.33 2.64 0.66 4 1 C2.515 2.485 2.515 2.485 1 4 C1.99 4 2.98 4 4 4 C3 7 3 7 1 9 C2.65 8.67 4.3 8.34 6 8 C5.67 8.66 5.34 9.32 5 10 C2.03 10 -0.94 10 -4 10 C-2.8905928 6.51329166 -1.73662334 3.22515763 0 0 Z " fill="#0D161A" transform="translate(295,423)"/>
<path d="M0 0 C0.33 0.99 0.66 1.98 1 3 C-2.94040224 6.07737466 -5.94336228 8.29768921 -11 9 C-11.99 9.66 -12.98 10.32 -14 11 C-14.33 10.01 -14.66 9.02 -15 8 C-14.113125 7.566875 -13.22625 7.13375 -12.3125 6.6875 C-9.45344121 5.23099835 -6.74250191 3.65993537 -4 2 C-2.67391178 1.31903578 -1.34313399 0.64669414 0 0 Z " fill="#136295" transform="translate(363,226)"/>
<path d="M0 0 C0.33 1.32 0.66 2.64 1 4 C-4.41538462 8.06153846 -4.41538462 8.06153846 -7.375 7.75 C-7.91125 7.5025 -8.4475 7.255 -9 7 C-8.67 5.35 -8.34 3.7 -8 2 C-6.865625 1.855625 -5.73125 1.71125 -4.5625 1.5625 C-1.19222799 1.38828522 -1.19222799 1.38828522 0 0 Z " fill="#1B5681" transform="translate(312,266)"/>
<path d="M0 0 C2.475 0.495 2.475 0.495 5 1 C5 1.99 5 2.98 5 4 C5.639375 4.268125 6.27875 4.53625 6.9375 4.8125 C9 6 9 6 10 9 C10.66 9 11.32 9 12 9 C13.6875 11.375 13.6875 11.375 15 14 C14.67 14.66 14.34 15.32 14 16 C12.5 14.625 12.5 14.625 11 13 C11 12.34 11 11.68 11 11 C10.01 10.67 9.02 10.34 8 10 C6.2109375 8.22265625 6.2109375 8.22265625 4.375 6.0625 C3.76398438 5.35222656 3.15296875 4.64195312 2.5234375 3.91015625 C1 2 1 2 0 0 Z " fill="#0C1316" transform="translate(433,394)"/>
<path d="M0 0 C2.85793316 2.85793316 2.40799941 5.14665584 2.625 9.125 C2.69976562 10.40632813 2.77453125 11.68765625 2.8515625 13.0078125 C2.92503906 14.48894531 2.92503906 14.48894531 3 16 C2.01 16 1.02 16 0 16 C0 10.72 0 5.44 0 0 Z M3 3 C3.33 3 3.66 3 4 3 C4 4.98 4 6.96 4 9 C3.67 9 3.34 9 3 9 C3 7.02 3 5.04 3 3 Z " fill="#11181B" transform="translate(411,423)"/>
<path d="M0 0 C0.33 0 0.66 0 1 0 C1.25 2.8125 1.25 2.8125 1 6 C-0.625 7.875 -0.625 7.875 -3 9 C-6.25 9.1875 -6.25 9.1875 -9 9 C-9.33 9.99 -9.66 10.98 -10 12 C-10 10.68 -10 9.36 -10 8 C-7.67882014 6.32359233 -5.36103736 5.16046105 -2.75 4 C-0.64862526 3.05720054 -0.64862526 3.05720054 0 0 Z " fill="#0F1315" transform="translate(223,426)"/>
<path d="M0 0 C0.66 0 1.32 0 2 0 C2.0825 1.27875 2.165 2.5575 2.25 3.875 C2.45869931 6.05333418 2.45869931 6.05333418 3 8 C4.92064793 9.5899433 4.92064793 9.5899433 7 10 C5.35 10 3.7 10 2 10 C2 11.32 2 12.64 2 14 C1.34 14 0.68 14 0 14 C0 9.38 0 4.76 0 0 Z " fill="#050606" transform="translate(211,424)"/>
<path d="M0 0 C2.62136168 2.62136168 2.38888188 3.96736196 2.5 7.625 C2.43151807 13.30900053 1.1284903 16.36904051 -2.4921875 20.671875 C-4 22 -4 22 -6 22 C-6 21.34 -6 20.68 -6 20 C-5.34 20 -4.68 20 -4 20 C-3.71125 19.4225 -3.4225 18.845 -3.125 18.25 C-2 16 -2 16 -0.9375 14.25 C0.28683751 11.31158997 0.19393336 8.92093472 0.125 5.75 C0.10695313 4.67234375 0.08890625 3.5946875 0.0703125 2.484375 C0.04710937 1.66453125 0.02390625 0.8446875 0 0 Z " fill="#0E171C" transform="translate(301,388)"/>
<path d="M0 0 C1.32 1.32 2.64 2.64 4 4 C4.99 2.68 5.98 1.36 7 0 C7.33 0.66 7.66 1.32 8 2 C4.375 7.875 4.375 7.875 1 9 C0.01 6.36 -0.98 3.72 -2 1 C-1.34 0.67 -0.68 0.34 0 0 Z " fill="#1A6E9D" transform="translate(323,304)"/>
<path d="M0 0 C4.71403788 0.47939368 8.66579301 0.96834048 13 3 C12.67 3.99 12.34 4.98 12 6 C8.37 5.34 4.74 4.68 1 4 C1.33 3.34 1.66 2.68 2 2 C1.34 1.34 0.68 0.68 0 0 Z " fill="#1B6289" transform="translate(420,234)"/>
<path d="M0 0 C-0.92263104 2.38346353 -1.45664858 3.70891888 -3.75 4.9375 C-7.03763977 5.02882333 -9.19018916 3.59648343 -12 2 C-12 1.67 -12 1.34 -12 1 C-10.56274129 0.83126522 -9.12518162 0.66509263 -7.6875 0.5 C-6.88699219 0.4071875 -6.08648437 0.314375 -5.26171875 0.21875 C-3 0 -3 0 0 0 Z " fill="#167AAB" transform="translate(394,225)"/>
<path d="M0 0 C4.0744433 1.35814777 5.42021951 4.1308426 7.6875 7.5625 C8.10322266 8.17802734 8.51894531 8.79355469 8.94726562 9.42773438 C9.97193162 10.94706671 10.98690678 12.47292657 12 14 C11.67 14.66 11.34 15.32 11 16 C9.34908416 13.89965153 7.70418762 11.79504167 6.0625 9.6875 C5.59392578 9.09259766 5.12535156 8.49769531 4.64257812 7.88476562 C2.61444041 5.27299116 1.05369199 3.16107597 0 0 Z " fill="#229CC7" transform="translate(186,176)"/>
<path d="M0 0 C1.8871875 0.0309375 1.8871875 0.0309375 3.8125 0.0625 C3.8125 1.0525 3.8125 2.0425 3.8125 3.0625 C-0.1475 3.0625 -4.1075 3.0625 -8.1875 3.0625 C-6.45706736 -0.39836529 -3.47359009 -0.0569441 0 0 Z " fill="#090A0A" transform="translate(348.1875,435.9375)"/>
<path d="M0 0 C0.99 0.33 1.98 0.66 3 1 C4.25 8.625 4.25 8.625 2 12 C1.67 10.35 1.34 8.7 1 7 C0.01 7 -0.98 7 -2 7 C-1.34 4.69 -0.68 2.38 0 0 Z " fill="#0C1012" transform="translate(325,427)"/>
<path d="M0 0 C6.02900687 0.51241107 12.02004643 1.069785 18 2 C14.4513865 4.36574234 13.4235475 4.10865265 9.3125 3.625 C7.82169922 3.45871094 7.82169922 3.45871094 6.30078125 3.2890625 C5.54152344 3.19367188 4.78226563 3.09828125 4 3 C4 2.34 4 1.68 4 1 C2.68 0.67 1.36 0.34 0 0 Z " fill="#1B5A81" transform="translate(213,277)"/>
<path d="M0 0 C0.66 0 1.32 0 2 0 C1.03644647 11.52164009 1.03644647 11.52164009 0 17 C-0.99 16.67 -1.98 16.34 -3 16 C-3 15.34 -3 14.68 -3 14 C-2.34 14 -1.68 14 -1 14 C-1.20625 12.989375 -1.4125 11.97875 -1.625 10.9375 C-2.0471494 6.50493131 -1.4359485 4.13891038 0 0 Z " fill="#2192C0" transform="translate(366,207)"/>
<path d="M0 0 C1 2 1 2 0.3125 5 C-1 8 -1 8 -2.9375 9.375 C-5 10 -5 10 -8 10 C-8 9.01 -8 8.02 -8 7 C-7.236875 6.773125 -6.47375 6.54625 -5.6875 6.3125 C-2.45263699 4.73268318 -1.58358642 3.16717283 0 0 Z " fill="#080909" transform="translate(402,429)"/>
<path d="M0 0 C1 3 1 3 -0.14453125 5.8828125 C-0.69496094 6.95273437 -1.24539063 8.02265625 -1.8125 9.125 C-2.35519531 10.20007813 -2.89789063 11.27515625 -3.45703125 12.3828125 C-5 15 -5 15 -7 16 C-5.26017005 10.18738629 -3.1889511 5.16830006 0 0 Z " fill="#22A6D8" transform="translate(302,304)"/>
<path d="M0 0 C0.33 0 0.66 0 1 0 C1.20086443 3.71599191 1.1519437 4.77208445 -1 8 C-3.1640625 8.29296875 -3.1640625 8.29296875 -5.625 8.1875 C-6.44226563 8.16042969 -7.25953125 8.13335937 -8.1015625 8.10546875 C-8.72804687 8.07066406 -9.35453125 8.03585937 -10 8 C-7.06171403 5.49701566 -4.82097239 4.53069061 -1 4 C-0.67 2.68 -0.34 1.36 0 0 Z " fill="#0C1013" transform="translate(178,426)"/>
<path d="M0 0 C2.0625 1.5625 2.0625 1.5625 4 4 C3.75 7.75 3.75 7.75 3 11 C2.67 9.68 2.34 8.36 2 7 C1.01 7.99 0.02 8.98 -1 10 C-1 8.02 -1 6.04 -1 4 C-0.34 4 0.32 4 1 4 C0.67 2.68 0.34 1.36 0 0 Z " fill="#0E181D" transform="translate(400,424)"/>
<path d="M0 0 C0.33 0 0.66 0 1 0 C1.08685287 3.29150125 1.14033895 6.5827096 1.1875 9.875 C1.21263672 10.81214844 1.23777344 11.74929688 1.26367188 12.71484375 C1.27333984 13.61074219 1.28300781 14.50664062 1.29296875 15.4296875 C1.3086792 16.25710449 1.32438965 17.08452148 1.34057617 17.93701172 C1.22818604 18.61779785 1.1157959 19.29858398 1 20 C0.01 20.66 -0.98 21.32 -2 22 C-2 20.68 -2 19.36 -2 18 C-1.34 18 -0.68 18 0 18 C0 12.06 0 6.12 0 0 Z " fill="#0B1012" transform="translate(146,398)"/>
<path d="M0 0 C3.59634744 3.49359465 6.83451967 7.11098131 10 11 C9.67 11.66 9.34 12.32 9 13 C8.16855469 12.02546875 8.16855469 12.02546875 7.3203125 11.03125 C6.23363281 9.77828125 6.23363281 9.77828125 5.125 8.5 C4.40570313 7.6646875 3.68640625 6.829375 2.9453125 5.96875 C2.30335938 5.3190625 1.66140625 4.669375 1 4 C0.34 4 -0.32 4 -1 4 C-0.67 2.68 -0.34 1.36 0 0 Z " fill="#23A9DA" transform="translate(309,290)"/>
<path d="M0 0 C0.33 0.99 0.66 1.98 1 3 C-0.3984375 4.97265625 -0.3984375 4.97265625 -2.375 7.0625 C-5.00450755 9.81041887 -5.00450755 9.81041887 -7 13 C-7.99 12.67 -8.98 12.34 -10 12 C-6.7 8.04 -3.4 4.08 0 0 Z " fill="#1C709D" transform="translate(367,251)"/>
<path d="M0 0 C0.99 0 1.98 0 3 0 C3 5.28 3 10.56 3 16 C2.01 15.67 1.02 15.34 0 15 C0.66 15 1.32 15 2 15 C2 11.04 2 7.08 2 3 C1.01 3 0.02 3 -1 3 C-0.67 2.01 -0.34 1.02 0 0 Z " fill="#0F1518" transform="translate(198,423)"/>
<path d="M0 0 C2.99324263 1.0975223 3.84610901 1.67682892 5.25 4.625 C5.4975 5.40875 5.745 6.1925 6 7 C4.1875 6.8125 4.1875 6.8125 2 6 C0.25 3.4375 0.25 3.4375 -1 1 C-0.67 0.67 -0.34 0.34 0 0 Z " fill="#0C0E0E" transform="translate(418,432)"/>
<path d="M0 0 C0.33 0.99 0.66 1.98 1 3 C4.465 2.505 4.465 2.505 8 2 C5.93243723 4.7972908 4.85559629 5.02692273 1.3125 5.6875 C0.219375 5.790625 -0.87375 5.89375 -2 6 C-1.34 4.02 -0.68 2.04 0 0 Z " fill="#1F87B7" transform="translate(293,322)"/>
<path d="M0 0 C2 1.75 2 1.75 4 4 C4 5.32 4 6.64 4 8 C1.00675737 6.9024777 0.15389099 6.32317108 -1.25 3.375 C-1.4975 2.59125 -1.745 1.8075 -2 1 C-1.34 0.67 -0.68 0.34 0 0 Z " fill="#1A5B8D" transform="translate(311,286)"/>
<path d="M0 0 C1.65 0 3.3 0 5 0 C0.25 4.875 0.25 4.875 -2 6 C-2 5.34 -2 4.68 -2 4 C-3.32 4.33 -4.64 4.66 -6 5 C-5.67 4.34 -5.34 3.68 -5 3 C-2.4375 2.375 -2.4375 2.375 0 2 C0 1.34 0 0.68 0 0 Z " fill="#1C5782" transform="translate(344,240)"/>
<path d="M0 0 C0.66 0 1.32 0 2 0 C1.6875 1.875 1.6875 1.875 1 4 C0.01 4.66 -0.98 5.32 -2 6 C-2.66 5.67 -3.32 5.34 -4 5 C-5.37342831 4.9310528 -6.75002102 4.91532292 -8.125 4.9375 C-10.043125 4.9684375 -10.043125 4.9684375 -12 5 C-12 4.67 -12 4.34 -12 4 C-6.06 3.505 -6.06 3.505 0 3 C0 2.01 0 1.02 0 0 Z " fill="#248ABE" transform="translate(282,214)"/>
<path d="M0 0 C0.66 0.33 1.32 0.66 2 1 C-0.97 7.93 -0.97 7.93 -4 15 C-4.33 15 -4.66 15 -5 15 C-4.5188509 9.22621075 -2.81532819 5.04140164 0 0 Z " fill="#1975A7" transform="translate(340,195)"/>
<path d="M0 0 C-2.3125 2.5 -2.3125 2.5 -5 5 C-5.99 5 -6.98 5 -8 5 C-7.67 3.35 -7.34 1.7 -7 0 C-2.25 -1.125 -2.25 -1.125 0 0 Z " fill="#0D181D" transform="translate(141,424)"/>
<path d="M0 0 C7.425 0.99 7.425 0.99 15 2 C15 2.33 15 2.66 15 3 C13.06494977 3.24900646 11.12674066 3.47356242 9.1875 3.6875 C8.10855469 3.81511719 7.02960938 3.94273437 5.91796875 4.07421875 C3 4 3 4 1.11328125 2.58203125 C0 1 0 1 0 0 Z " fill="#1B3B55" transform="translate(389,232)"/>
<path d="M0 0 C1.65 0 3.3 0 5 0 C5 1.65 5 3.3 5 5 C3.02 4.34 1.04 3.68 -1 3 C-0.67 2.01 -0.34 1.02 0 0 Z " fill="#10191E" transform="translate(271,431)"/>
<path d="M0 0 C4.95 0.99 4.95 0.99 10 2 C9.01 2.99 8.02 3.98 7 5 C3.9582904 4.71483972 2.60954198 3.73969465 0 2 C0 1.34 0 0.68 0 0 Z " fill="#1B6189" transform="translate(200,274)"/>
<path d="M0 0 C0.33 1.32 0.66 2.64 1 4 C-3.455 4.495 -3.455 4.495 -8 5 C-7.67 4.01 -7.34 3.02 -7 2 C-6.030625 1.855625 -5.06125 1.71125 -4.0625 1.5625 C-1.13513227 1.32437659 -1.13513227 1.32437659 0 0 Z " fill="#1B4972" transform="translate(312,266)"/>
<path d="M0 0 C0.99 0.33 1.98 0.66 3 1 C1.90716423 2.03295436 0.80029421 3.05107835 -0.3125 4.0625 C-0.92738281 4.63097656 -1.54226563 5.19945312 -2.17578125 5.78515625 C-2.77777344 6.18605469 -3.37976563 6.58695312 -4 7 C-4.99 6.67 -5.98 6.34 -7 6 C-5.90716423 4.96704564 -4.80029421 3.94892165 -3.6875 2.9375 C-3.07261719 2.36902344 -2.45773437 1.80054688 -1.82421875 1.21484375 C-0.92123047 0.61349609 -0.92123047 0.61349609 0 0 Z " fill="#1D79AA" transform="translate(342,264)"/>
<path d="M0 0 C3.3 1.65 6.6 3.3 10 5 C10 5.33 10 5.66 10 6 C3.52443609 5.38909774 3.52443609 5.38909774 1.0625 3.5625 C0 2 0 2 0 0 Z " fill="#229AC4" transform="translate(261,202)"/>
<path d="M0 0 C2.475 0.495 2.475 0.495 5 1 C4 4 4 4 2 5 C1.34 5.99 0.68 6.98 0 8 C0 5.36 0 2.72 0 0 Z " fill="#060606" transform="translate(433,430)"/>
<path d="M0 0 C3.79448125 2.35519526 5.20578369 4.9630133 7 9 C3.17475764 7.549046 1.80909034 5.61818068 0 2 C0 1.34 0 0.68 0 0 Z " fill="#0C1012" transform="translate(260,379)"/>
<path d="M0 0 C-0.33 0.66 -0.66 1.32 -1 2 C-3.97 1.67 -6.94 1.34 -10 1 C-10 0.34 -10 -0.32 -10 -1 C-6.06329512 -2.31223496 -3.87511856 -1.24296256 0 0 Z " fill="#1C4262" transform="translate(238,281)"/>
<path d="M0 0 C1.485 0.99 1.485 0.99 3 2 C3 2.33 3 2.66 3 3 C4.65 3.33 6.3 3.66 8 4 C6.68 4.33 5.36 4.66 4 5 C4 5.66 4 6.32 4 7 C3.34 7 2.68 7 2 7 C1.34 4.69 0.68 2.38 0 0 Z " fill="#1D7BAB" transform="translate(303,273)"/>
<path d="M0 0 C0.66 0 1.32 0 2 0 C0.125 5.75 0.125 5.75 -1 8 C-1.99 7.67 -2.98 7.34 -4 7 C-2.68 4.69 -1.36 2.38 0 0 Z " fill="#2299C2" transform="translate(357,164)"/>
<path d="M0 0 C1.32 0 2.64 0 4 0 C4.33 1.32 4.66 2.64 5 4 C4.01 4 3.02 4 2 4 C1.67 4.66 1.34 5.32 1 6 C0.67 4.02 0.34 2.04 0 0 Z " fill="#0D1418" transform="translate(359,423)"/>
<path d="M0 0 C0.33 0.99 0.66 1.98 1 3 C-0.8125 4.5625 -0.8125 4.5625 -3 6 C-3.99 5.67 -4.98 5.34 -6 5 C-4.02 3.35 -2.04 1.7 0 0 Z " fill="#1B4D73" transform="translate(363,226)"/>
<path d="M0 0 C0.99 0 1.98 0 3 0 C3.33 1.65 3.66 3.3 4 5 C3.01 5.495 3.01 5.495 2 6 C2 5.01 2 4.02 2 3 C1.01 3.33 0.02 3.66 -1 4 C-0.67 2.68 -0.34 1.36 0 0 Z " fill="#1D86B9" transform="translate(285,219)"/>
</svg>
